<svg xmlns="http://www.w3.org/2000/svg" xmlns:xlink="http://www.w3.org/1999/xlink" width="600" zoomAndPan="magnify" viewBox="0 0 450 449.999984" height="600" preserveAspectRatio="xMidYMid meet" version="1.0"><defs><clipPath id="8128f524e9"><path d="M 25 18.164062 L 425.386719 18.164062 L 425.386719 432.164062 L 25 432.164062 Z M 25 18.164062 " clip-rule="nonzero"/></clipPath></defs><g clip-path="url(#8128f524e9)"><path fill="#fff" d="M 418.316406 18.164062 L 31.953125 18.164062 C 31.5 18.164062 31.050781 18.207031 30.605469 18.296875 C 30.164062 18.382812 29.730469 18.515625 29.3125 18.6875 C 28.894531 18.863281 28.496094 19.074219 28.121094 19.324219 C 27.742188 19.578125 27.394531 19.863281 27.074219 20.183594 C 26.753906 20.503906 26.46875 20.851562 26.214844 21.230469 C 25.964844 21.605469 25.753906 22.003906 25.578125 22.421875 C 25.40625 22.839844 25.273438 23.273438 25.1875 23.71875 C 25.097656 24.160156 25.054688 24.609375 25.054688 25.0625 L 25.054688 425.261719 C 25.054688 425.714844 25.097656 426.164062 25.1875 426.609375 C 25.273438 427.054688 25.40625 427.484375 25.578125 427.902344 C 25.753906 428.320312 25.964844 428.71875 26.214844 429.097656 C 26.46875 429.472656 26.753906 429.820312 27.074219 430.140625 C 27.394531 430.460938 27.742188 430.75 28.121094 431 C 28.496094 431.25 28.894531 431.464844 29.3125 431.636719 C 29.730469 431.8125 30.164062 431.941406 30.605469 432.03125 C 31.050781 432.117188 31.5 432.164062 31.953125 432.164062 L 418.316406 432.164062 C 418.769531 432.164062 419.21875 432.117188 419.664062 432.03125 C 420.109375 431.941406 420.539062 431.8125 420.957031 431.636719 C 421.375 431.464844 421.773438 431.25 422.152344 431 C 422.527344 430.75 422.875 430.460938 423.195312 430.140625 C 423.515625 429.820312 423.804688 429.472656 424.054688 429.097656 C 424.304688 428.71875 424.519531 428.320312 424.691406 427.902344 C 424.867188 427.484375 424.996094 427.054688 425.085938 426.609375 C 425.171875 426.164062 425.21875 425.714844 425.21875 425.261719 L 425.21875 25.0625 C 425.21875 24.609375 425.171875 24.160156 425.085938 23.71875 C 424.996094 23.273438 424.867188 22.839844 424.691406 22.421875 C 424.519531 22.003906 424.304688 21.605469 424.054688 21.230469 C 423.804688 20.851562 423.515625 20.503906 423.195312 20.183594 C 422.875 19.863281 422.527344 19.578125 422.152344 19.324219 C 421.773438 19.074219 421.375 18.863281 420.957031 18.6875 C 420.539062 18.515625 420.109375 18.382812 419.664062 18.296875 C 419.21875 18.207031 418.769531 18.164062 418.316406 18.164062 Z M 411.417969 31.964844 L 411.417969 59.5625 L 38.851562 59.5625 L 38.851562 31.964844 Z M 38.851562 418.363281 L 38.851562 73.363281 L 411.417969 73.363281 L 411.417969 418.363281 Z M 38.851562 418.363281 " fill-opacity="1" fill-rule="nonzero"/></g><path fill="#fff" d="M 273.429688 252.761719 L 356.222656 252.761719 L 356.222656 266.5625 L 273.429688 266.5625 Z M 273.429688 252.761719 " fill-opacity="1" fill-rule="nonzero"/><path fill="#fff" d="M 245.832031 280.363281 L 383.820312 280.363281 L 383.820312 294.164062 L 245.832031 294.164062 Z M 245.832031 280.363281 " fill-opacity="1" fill-rule="nonzero"/><path fill="#fff" d="M 245.832031 301.0625 L 383.820312 301.0625 L 383.820312 314.863281 L 245.832031 314.863281 Z M 245.832031 301.0625 " fill-opacity="1" fill-rule="nonzero"/><path fill="#fff" d="M 301.027344 100.964844 L 397.621094 100.964844 L 397.621094 114.761719 L 301.027344 114.761719 Z M 301.027344 100.964844 " fill-opacity="1" fill-rule="nonzero"/><path fill="#fff" d="M 301.027344 121.664062 L 397.621094 121.664062 L 397.621094 135.464844 L 301.027344 135.464844 Z M 301.027344 121.664062 " fill-opacity="1" fill-rule="nonzero"/><path fill="#fff" d="M 301.027344 169.964844 L 397.621094 169.964844 L 397.621094 183.761719 L 301.027344 183.761719 Z M 301.027344 169.964844 " fill-opacity="1" fill-rule="nonzero"/><path fill="#fff" d="M 301.027344 190.664062 L 397.621094 190.664062 L 397.621094 204.464844 L 301.027344 204.464844 Z M 301.027344 190.664062 " fill-opacity="1" fill-rule="nonzero"/><path fill="#fff" d="M 245.832031 321.761719 L 383.820312 321.761719 L 383.820312 335.5625 L 245.832031 335.5625 Z M 245.832031 321.761719 " fill-opacity="1" fill-rule="nonzero"/><path fill="#fff" d="M 245.832031 342.464844 L 383.820312 342.464844 L 383.820312 356.261719 L 245.832031 356.261719 Z M 245.832031 342.464844 " fill-opacity="1" fill-rule="nonzero"/><path fill="#fff" d="M 245.832031 363.164062 L 383.820312 363.164062 L 383.820312 376.964844 L 245.832031 376.964844 Z M 245.832031 363.164062 " fill-opacity="1" fill-rule="nonzero"/><path fill="#fff" d="M 245.832031 383.863281 L 383.820312 383.863281 L 383.820312 397.664062 L 245.832031 397.664062 Z M 245.832031 383.863281 " fill-opacity="1" fill-rule="nonzero"/><path fill="#fff" d="M 45.75 38.863281 L 59.550781 38.863281 L 59.550781 52.664062 L 45.75 52.664062 Z M 45.75 38.863281 " fill-opacity="1" fill-rule="nonzero"/><path fill="#fff" d="M 66.449219 38.863281 L 80.25 38.863281 L 80.25 52.664062 L 66.449219 52.664062 Z M 66.449219 38.863281 " fill-opacity="1" fill-rule="nonzero"/><path fill="#fff" d="M 87.148438 38.863281 L 100.945312 38.863281 L 100.945312 52.664062 L 87.148438 52.664062 Z M 87.148438 38.863281 " fill-opacity="1" fill-rule="nonzero"/><path fill="#fff" d="M 197.539062 87.164062 L 59.550781 87.164062 C 59.097656 87.164062 58.648438 87.207031 58.203125 87.296875 C 57.761719 87.382812 57.328125 87.515625 56.910156 87.6875 C 56.492188 87.863281 56.09375 88.074219 55.71875 88.324219 C 55.339844 88.578125 54.992188 88.863281 54.671875 89.183594 C 54.351562 89.503906 54.066406 89.851562 53.8125 90.230469 C 53.5625 90.605469 53.347656 91.003906 53.175781 91.421875 C 53.003906 91.839844 52.871094 92.273438 52.785156 92.71875 C 52.695312 93.160156 52.652344 93.609375 52.652344 94.0625 L 52.652344 232.0625 C 52.652344 232.515625 52.695312 232.964844 52.785156 233.410156 C 52.871094 233.855469 53.003906 234.285156 53.175781 234.703125 C 53.347656 235.121094 53.5625 235.519531 53.8125 235.898438 C 54.066406 236.273438 54.351562 236.621094 54.671875 236.941406 C 54.992188 237.261719 55.339844 237.546875 55.71875 237.800781 C 56.09375 238.050781 56.492188 238.265625 56.910156 238.4375 C 57.328125 238.609375 57.761719 238.742188 58.203125 238.832031 C 58.648438 238.917969 59.097656 238.964844 59.550781 238.964844 L 197.539062 238.964844 C 197.992188 238.964844 198.441406 238.917969 198.882812 238.832031 C 199.328125 238.742188 199.757812 238.609375 200.179688 238.4375 C 200.597656 238.265625 200.996094 238.050781 201.371094 237.800781 C 201.746094 237.546875 202.097656 237.261719 202.417969 236.941406 C 202.738281 236.621094 203.023438 236.273438 203.273438 235.898438 C 203.527344 235.519531 203.738281 235.121094 203.910156 234.703125 C 204.085938 234.285156 204.214844 233.855469 204.304688 233.410156 C 204.394531 232.964844 204.4375 232.515625 204.4375 232.0625 L 204.4375 94.0625 C 204.4375 93.609375 204.394531 93.160156 204.304688 92.71875 C 204.214844 92.273438 204.085938 91.839844 203.910156 91.421875 C 203.738281 91.003906 203.527344 90.605469 203.273438 90.230469 C 203.023438 89.851562 202.738281 89.503906 202.417969 89.183594 C 202.097656 88.863281 201.746094 88.578125 201.371094 88.324219 C 200.996094 88.074219 200.597656 87.863281 200.179688 87.6875 C 199.757812 87.515625 199.328125 87.382812 198.882812 87.296875 C 198.441406 87.207031 197.992188 87.164062 197.539062 87.164062 Z M 190.636719 225.164062 L 66.449219 225.164062 L 66.449219 100.964844 L 190.636719 100.964844 Z M 190.636719 225.164062 " fill-opacity="1" fill-rule="nonzero"/><path fill="#fff" d="M 197.539062 252.761719 L 59.550781 252.761719 C 59.097656 252.761719 58.648438 252.808594 58.203125 252.894531 C 57.761719 252.984375 57.328125 253.113281 56.910156 253.289062 C 56.492188 253.460938 56.09375 253.675781 55.71875 253.925781 C 55.339844 254.175781 54.992188 254.464844 54.671875 254.785156 C 54.351562 255.105469 54.066406 255.453125 53.8125 255.828125 C 53.5625 256.207031 53.347656 256.605469 53.175781 257.023438 C 53.003906 257.441406 52.871094 257.871094 52.785156 258.316406 C 52.695312 258.761719 52.652344 259.210938 52.652344 259.664062 L 52.652344 397.664062 C 52.652344 398.117188 52.695312 398.566406 52.785156 399.007812 C 52.871094 399.453125 53.003906 399.886719 53.175781 400.304688 C 53.347656 400.722656 53.5625 401.121094 53.8125 401.496094 C 54.066406 401.875 54.351562 402.222656 54.671875 402.542969 C 54.992188 402.863281 55.339844 403.148438 55.71875 403.398438 C 56.09375 403.652344 56.492188 403.863281 56.910156 404.039062 C 57.328125 404.210938 57.761719 404.34375 58.203125 404.429688 C 58.648438 404.519531 59.097656 404.5625 59.550781 404.5625 L 197.539062 404.5625 C 197.992188 404.5625 198.441406 404.519531 198.882812 404.429688 C 199.328125 404.34375 199.757812 404.210938 200.179688 404.039062 C 200.597656 403.863281 200.996094 403.652344 201.371094 403.398438 C 201.746094 403.148438 202.097656 402.863281 202.417969 402.542969 C 202.738281 402.222656 203.023438 401.875 203.273438 401.496094 C 203.527344 401.121094 203.738281 400.722656 203.910156 400.304688 C 204.085938 399.886719 204.214844 399.453125 204.304688 399.007812 C 204.394531 398.566406 204.4375 398.117188 204.4375 397.664062 L 204.4375 259.664062 C 204.4375 259.210938 204.394531 258.761719 204.304688 258.316406 C 204.214844 257.871094 204.085938 257.441406 203.910156 257.023438 C 203.738281 256.605469 203.527344 256.207031 203.273438 255.828125 C 203.023438 255.453125 202.738281 255.105469 202.417969 254.785156 C 202.097656 254.464844 201.746094 254.175781 201.371094 253.925781 C 200.996094 253.675781 200.597656 253.460938 200.179688 253.289062 C 199.757812 253.113281 199.328125 252.984375 198.882812 252.894531 C 198.441406 252.808594 197.992188 252.761719 197.539062 252.761719 Z M 190.636719 390.761719 L 66.449219 390.761719 L 66.449219 266.5625 L 190.636719 266.5625 Z M 190.636719 390.761719 " fill-opacity="1" fill-rule="nonzero"/><path fill="#fff" d="M 259.632812 149.261719 C 260.535156 149.261719 261.4375 149.21875 262.335938 149.128906 C 263.238281 149.042969 264.128906 148.910156 265.015625 148.734375 C 265.902344 148.554688 266.777344 148.335938 267.644531 148.074219 C 268.507812 147.8125 269.359375 147.507812 270.191406 147.164062 C 271.027344 146.816406 271.84375 146.429688 272.640625 146.003906 C 273.4375 145.578125 274.214844 145.113281 274.964844 144.613281 C 275.714844 144.109375 276.441406 143.570312 277.140625 143 C 277.839844 142.425781 278.507812 141.820312 279.148438 141.179688 C 279.785156 140.539062 280.390625 139.871094 280.964844 139.171875 C 281.539062 138.472656 282.078125 137.75 282.578125 136.996094 C 283.082031 136.246094 283.546875 135.472656 283.972656 134.671875 C 284.398438 133.875 284.78125 133.058594 285.128906 132.226562 C 285.476562 131.390625 285.777344 130.539062 286.042969 129.675781 C 286.304688 128.808594 286.523438 127.933594 286.699219 127.046875 C 286.875 126.160156 287.007812 125.269531 287.097656 124.367188 C 287.183594 123.46875 287.230469 122.566406 287.230469 121.664062 C 287.230469 120.757812 287.183594 119.859375 287.097656 118.957031 C 287.007812 118.058594 286.875 117.164062 286.699219 116.277344 C 286.523438 115.390625 286.304688 114.515625 286.042969 113.652344 C 285.777344 112.785156 285.476562 111.9375 285.128906 111.101562 C 284.78125 110.265625 284.398438 109.449219 283.972656 108.652344 C 283.546875 107.855469 283.082031 107.082031 282.578125 106.328125 C 282.078125 105.578125 281.539062 104.851562 280.964844 104.152344 C 280.390625 103.457031 279.785156 102.785156 279.148438 102.148438 C 278.507812 101.507812 277.839844 100.902344 277.140625 100.328125 C 276.441406 99.753906 275.714844 99.214844 274.964844 98.714844 C 274.214844 98.210938 273.4375 97.75 272.640625 97.320312 C 271.84375 96.894531 271.027344 96.511719 270.191406 96.164062 C 269.359375 95.816406 268.507812 95.515625 267.644531 95.25 C 266.777344 94.988281 265.902344 94.769531 265.015625 94.59375 C 264.128906 94.417969 263.238281 94.285156 262.335938 94.195312 C 261.4375 94.109375 260.535156 94.0625 259.632812 94.0625 C 258.726562 94.0625 257.828125 94.109375 256.925781 94.195312 C 256.027344 94.285156 255.132812 94.417969 254.25 94.59375 C 253.363281 94.769531 252.484375 94.988281 251.621094 95.25 C 250.757812 95.515625 249.90625 95.816406 249.070312 96.164062 C 248.234375 96.511719 247.421875 96.894531 246.621094 97.320312 C 245.824219 97.75 245.050781 98.210938 244.300781 98.714844 C 243.546875 99.214844 242.824219 99.753906 242.125 100.328125 C 241.425781 100.902344 240.757812 101.507812 240.117188 102.148438 C 239.480469 102.785156 238.871094 103.457031 238.300781 104.152344 C 237.726562 104.851562 237.1875 105.578125 236.6875 106.328125 C 236.183594 107.082031 235.71875 107.855469 235.292969 108.652344 C 234.867188 109.449219 234.480469 110.265625 234.136719 111.101562 C 233.789062 111.9375 233.484375 112.785156 233.222656 113.652344 C 232.960938 114.515625 232.742188 115.390625 232.566406 116.277344 C 232.390625 117.164062 232.257812 118.058594 232.167969 118.957031 C 232.078125 119.859375 232.035156 120.757812 232.035156 121.664062 C 232.035156 122.566406 232.078125 123.46875 232.167969 124.367188 C 232.257812 125.269531 232.390625 126.160156 232.566406 127.046875 C 232.742188 127.933594 232.960938 128.808594 233.222656 129.675781 C 233.484375 130.539062 233.789062 131.390625 234.136719 132.226562 C 234.480469 133.058594 234.867188 133.875 235.292969 134.671875 C 235.71875 135.472656 236.183594 136.246094 236.6875 136.996094 C 237.1875 137.75 237.726562 138.472656 238.300781 139.171875 C 238.871094 139.871094 239.480469 140.539062 240.117188 141.179688 C 240.757812 141.820312 241.425781 142.425781 242.125 143 C 242.824219 143.570312 243.546875 144.109375 244.300781 144.613281 C 245.050781 145.113281 245.824219 145.578125 246.621094 146.003906 C 247.421875 146.429688 248.234375 146.816406 249.070312 147.164062 C 249.90625 147.507812 250.757812 147.8125 251.621094 148.074219 C 252.484375 148.335938 253.363281 148.554688 254.25 148.734375 C 255.132812 148.910156 256.027344 149.042969 256.925781 149.128906 C 257.828125 149.21875 258.726562 149.261719 259.632812 149.261719 Z M 259.632812 107.863281 C 260.539062 107.863281 261.4375 107.953125 262.324219 108.128906 C 263.210938 108.304688 264.074219 108.566406 264.914062 108.914062 C 265.75 109.261719 266.546875 109.683594 267.296875 110.1875 C 268.050781 110.691406 268.75 111.265625 269.390625 111.90625 C 270.03125 112.546875 270.601562 113.242188 271.105469 113.996094 C 271.609375 114.75 272.035156 115.546875 272.378906 116.382812 C 272.726562 117.21875 272.988281 118.082031 273.164062 118.972656 C 273.34375 119.859375 273.429688 120.757812 273.429688 121.664062 C 273.429688 122.570312 273.34375 123.464844 273.164062 124.355469 C 272.988281 125.242188 272.726562 126.105469 272.378906 126.945312 C 272.035156 127.78125 271.609375 128.578125 271.105469 129.328125 C 270.601562 130.082031 270.03125 130.78125 269.390625 131.421875 C 268.75 132.0625 268.050781 132.632812 267.296875 133.136719 C 266.546875 133.640625 265.75 134.066406 264.914062 134.414062 C 264.074219 134.757812 263.210938 135.019531 262.324219 135.199219 C 261.4375 135.375 260.539062 135.464844 259.632812 135.464844 C 258.726562 135.464844 257.828125 135.375 256.941406 135.199219 C 256.050781 135.019531 255.1875 134.757812 254.351562 134.414062 C 253.515625 134.066406 252.71875 133.640625 251.964844 133.136719 C 251.210938 132.632812 250.515625 132.0625 249.875 131.421875 C 249.234375 130.78125 248.664062 130.082031 248.160156 129.328125 C 247.65625 128.578125 247.230469 127.78125 246.882812 126.945312 C 246.535156 126.105469 246.273438 125.242188 246.097656 124.355469 C 245.921875 123.464844 245.832031 122.570312 245.832031 121.664062 C 245.832031 120.757812 245.921875 119.859375 246.097656 118.972656 C 246.273438 118.082031 246.535156 117.21875 246.882812 116.382812 C 247.230469 115.546875 247.65625 114.75 248.160156 113.996094 C 248.664062 113.242188 249.234375 112.546875 249.875 111.90625 C 250.515625 111.265625 251.210938 110.691406 251.964844 110.1875 C 252.71875 109.683594 253.515625 109.261719 254.351562 108.914062 C 255.1875 108.566406 256.050781 108.304688 256.941406 108.128906 C 257.828125 107.953125 258.726562 107.863281 259.632812 107.863281 Z M 259.632812 107.863281 " fill-opacity="1" fill-rule="nonzero"/><path fill="#fff" d="M 287.230469 190.664062 C 287.230469 189.757812 287.183594 188.859375 287.097656 187.957031 C 287.007812 187.058594 286.875 186.164062 286.699219 185.277344 C 286.523438 184.390625 286.304688 183.515625 286.042969 182.652344 C 285.777344 181.785156 285.476562 180.9375 285.128906 180.101562 C 284.78125 179.265625 284.398438 178.449219 283.972656 177.652344 C 283.546875 176.855469 283.082031 176.082031 282.578125 175.328125 C 282.078125 174.578125 281.539062 173.851562 280.964844 173.152344 C 280.390625 172.457031 279.785156 171.785156 279.148438 171.148438 C 278.507812 170.507812 277.839844 169.902344 277.140625 169.328125 C 276.441406 168.753906 275.714844 168.214844 274.964844 167.714844 C 274.214844 167.210938 273.4375 166.75 272.640625 166.320312 C 271.84375 165.894531 271.027344 165.511719 270.191406 165.164062 C 269.359375 164.816406 268.507812 164.515625 267.644531 164.25 C 266.777344 163.988281 265.902344 163.769531 265.015625 163.59375 C 264.128906 163.417969 263.238281 163.285156 262.335938 163.195312 C 261.4375 163.109375 260.535156 163.0625 259.632812 163.0625 C 258.726562 163.0625 257.828125 163.109375 256.925781 163.195312 C 256.027344 163.285156 255.132812 163.417969 254.25 163.59375 C 253.363281 163.769531 252.484375 163.988281 251.621094 164.25 C 250.757812 164.515625 249.90625 164.816406 249.070312 165.164062 C 248.234375 165.511719 247.421875 165.894531 246.621094 166.320312 C 245.824219 166.75 245.050781 167.210938 244.300781 167.714844 C 243.546875 168.214844 242.824219 168.753906 242.125 169.328125 C 241.425781 169.902344 240.757812 170.507812 240.117188 171.148438 C 239.480469 171.785156 238.871094 172.457031 238.300781 173.152344 C 237.726562 173.851562 237.1875 174.578125 236.6875 175.328125 C 236.183594 176.082031 235.71875 176.855469 235.292969 177.652344 C 234.867188 178.449219 234.480469 179.265625 234.136719 180.101562 C 233.789062 180.9375 233.484375 181.785156 233.222656 182.652344 C 232.960938 183.515625 232.742188 184.390625 232.566406 185.277344 C 232.390625 186.164062 232.257812 187.058594 232.167969 187.957031 C 232.078125 188.859375 232.035156 189.757812 232.035156 190.664062 C 232.035156 191.566406 232.078125 192.46875 232.167969 193.367188 C 232.257812 194.269531 232.390625 195.160156 232.566406 196.046875 C 232.742188 196.933594 232.960938 197.808594 233.222656 198.675781 C 233.484375 199.539062 233.789062 200.390625 234.136719 201.226562 C 234.480469 202.058594 234.867188 202.875 235.292969 203.671875 C 235.71875 204.472656 236.183594 205.246094 236.6875 205.996094 C 237.1875 206.75 237.726562 207.472656 238.300781 208.171875 C 238.871094 208.871094 239.480469 209.539062 240.117188 210.179688 C 240.757812 210.820312 241.425781 211.425781 242.125 212 C 242.824219 212.570312 243.546875 213.109375 244.300781 213.613281 C 245.050781 214.113281 245.824219 214.578125 246.621094 215.003906 C 247.421875 215.429688 248.234375 215.816406 249.070312 216.164062 C 249.90625 216.507812 250.757812 216.8125 251.621094 217.074219 C 252.484375 217.335938 253.363281 217.554688 254.25 217.734375 C 255.132812 217.910156 256.027344 218.042969 256.925781 218.128906 C 257.828125 218.21875 258.726562 218.261719 259.632812 218.261719 C 260.535156 218.261719 261.4375 218.21875 262.335938 218.128906 C 263.238281 218.042969 264.128906 217.910156 265.015625 217.734375 C 265.902344 217.554688 266.777344 217.335938 267.644531 217.074219 C 268.507812 216.8125 269.359375 216.507812 270.191406 216.164062 C 271.027344 215.816406 271.84375 215.429688 272.640625 215.003906 C 273.4375 214.578125 274.214844 214.113281 274.964844 213.613281 C 275.714844 213.109375 276.441406 212.570312 277.140625 212 C 277.839844 211.425781 278.507812 210.820312 279.148438 210.179688 C 279.785156 209.539062 280.390625 208.871094 280.964844 208.171875 C 281.539062 207.472656 282.078125 206.75 282.578125 205.996094 C 283.082031 205.246094 283.546875 204.472656 283.972656 203.671875 C 284.398438 202.875 284.78125 202.058594 285.128906 201.226562 C 285.476562 200.390625 285.777344 199.539062 286.042969 198.675781 C 286.304688 197.808594 286.523438 196.933594 286.699219 196.046875 C 286.875 195.160156 287.007812 194.269531 287.097656 193.367188 C 287.183594 192.46875 287.230469 191.566406 287.230469 190.664062 Z M 245.832031 190.664062 C 245.832031 189.757812 245.921875 188.859375 246.097656 187.972656 C 246.273438 187.082031 246.535156 186.21875 246.882812 185.382812 C 247.230469 184.546875 247.65625 183.75 248.160156 182.996094 C 248.664062 182.242188 249.234375 181.546875 249.875 180.90625 C 250.515625 180.265625 251.210938 179.691406 251.964844 179.1875 C 252.71875 178.683594 253.515625 178.261719 254.351562 177.914062 C 255.1875 177.566406 256.050781 177.304688 256.941406 177.128906 C 257.828125 176.953125 258.726562 176.863281 259.632812 176.863281 C 260.539062 176.863281 261.4375 176.953125 262.324219 177.128906 C 263.210938 177.304688 264.074219 177.566406 264.914062 177.914062 C 265.75 178.261719 266.546875 178.683594 267.296875 179.1875 C 268.050781 179.691406 268.75 180.265625 269.390625 180.90625 C 270.03125 181.546875 270.601562 182.242188 271.105469 182.996094 C 271.609375 183.75 272.035156 184.546875 272.378906 185.382812 C 272.726562 186.21875 272.988281 187.082031 273.164062 187.972656 C 273.34375 188.859375 273.429688 189.757812 273.429688 190.664062 C 273.429688 191.570312 273.34375 192.464844 273.164062 193.355469 C 272.988281 194.242188 272.726562 195.105469 272.378906 195.945312 C 272.035156 196.78125 271.609375 197.578125 271.105469 198.328125 C 270.601562 199.082031 270.03125 199.78125 269.390625 200.421875 C 268.75 201.0625 268.050781 201.632812 267.296875 202.136719 C 266.546875 202.640625 265.75 203.066406 264.914062 203.414062 C 264.074219 203.757812 263.210938 204.019531 262.324219 204.199219 C 261.4375 204.375 260.539062 204.464844 259.632812 204.464844 C 258.726562 204.464844 257.828125 204.375 256.941406 204.199219 C 256.050781 204.019531 255.1875 203.757812 254.351562 203.414062 C 253.515625 203.066406 252.71875 202.640625 251.964844 202.136719 C 251.210938 201.632812 250.515625 201.0625 249.875 200.421875 C 249.234375 199.78125 248.664062 199.082031 248.160156 198.328125 C 247.65625 197.578125 247.230469 196.78125 246.882812 195.945312 C 246.535156 195.105469 246.273438 194.242188 246.097656 193.355469 C 245.921875 192.464844 245.832031 191.570312 245.832031 190.664062 Z M 245.832031 190.664062 " fill-opacity="1" fill-rule="nonzero"/></svg>