<svg xmlns="http://www.w3.org/2000/svg" xmlns:xlink="http://www.w3.org/1999/xlink" width="600" zoomAndPan="magnify" viewBox="0 0 450 449.999984" height="600" preserveAspectRatio="xMidYMid meet" version="1.0"><defs><clipPath id="c9a25a5d95"><path d="M 49 48.082031 L 401 48.082031 L 401 402.082031 L 49 402.082031 Z M 49 48.082031 " clip-rule="nonzero"/></clipPath><clipPath id="7040c36e47"><path d="M 420 233 L 434.566406 233 L 434.566406 251 L 420 251 Z M 420 233 " clip-rule="nonzero"/></clipPath><clipPath id="c011575659"><path d="M 420 204 L 434.566406 204 L 434.566406 222 L 420 222 Z M 420 204 " clip-rule="nonzero"/></clipPath><clipPath id="a5c3045415"><path d="M 15.316406 199 L 30 199 L 30 216 L 15.316406 216 Z M 15.316406 199 " clip-rule="nonzero"/></clipPath><clipPath id="2449844963"><path d="M 15.316406 228 L 30 228 L 30 246 L 15.316406 246 Z M 15.316406 228 " clip-rule="nonzero"/></clipPath></defs><path fill="#fff" d="M 224.941406 82.171875 C 146.660156 82.171875 83.117188 146.414062 83.117188 225.082031 C 83.117188 303.746094 146.660156 367.988281 224.941406 367.988281 C 303.226562 367.988281 366.765625 303.746094 366.765625 225.082031 C 366.765625 146.414062 303.226562 82.171875 224.941406 82.171875 Z M 224.941406 354.878906 C 153.867188 354.878906 96.21875 296.535156 96.21875 225.082031 C 96.21875 153.625 153.867188 95.28125 224.941406 95.28125 C 296.019531 95.28125 353.664062 153.625 353.664062 225.082031 C 353.664062 296.535156 296.019531 354.878906 224.941406 354.878906 Z M 224.941406 354.878906 " fill-opacity="1" fill-rule="nonzero"/><g clip-path="url(#c9a25a5d95)"><path fill="#fff" d="M 224.941406 48.082031 C 127.992188 48.082031 49.054688 127.40625 49.054688 225.082031 C 49.054688 322.757812 127.992188 402.078125 224.941406 402.078125 C 321.894531 402.078125 400.832031 322.757812 400.832031 225.082031 C 400.832031 127.40625 321.894531 48.082031 224.941406 48.082031 Z M 224.941406 388.96875 C 135.199219 388.96875 62.15625 315.546875 62.15625 225.082031 C 62.15625 134.617188 135.199219 61.195312 224.941406 61.195312 C 314.6875 61.195312 387.730469 134.617188 387.730469 225.082031 C 387.730469 315.546875 314.6875 388.96875 224.941406 388.96875 Z M 224.941406 388.96875 " fill-opacity="1" fill-rule="nonzero"/></g><path fill="#fff" d="M 409.347656 124.453125 C 407.710938 121.175781 403.78125 120.195312 400.503906 121.832031 C 397.230469 123.472656 396.246094 127.40625 397.882812 130.683594 C 398.539062 131.664062 398.867188 132.648438 399.195312 133.304688 C 400.503906 135.597656 402.796875 136.910156 405.089844 136.910156 C 406.070312 136.910156 407.054688 136.582031 408.039062 136.253906 C 411.3125 134.617188 412.621094 130.683594 410.984375 127.40625 C 410.332031 126.421875 409.675781 125.4375 409.347656 124.453125 Z M 409.347656 124.453125 " fill-opacity="1" fill-rule="nonzero"/><path fill="#fff" d="M 390.679688 343.40625 C 387.730469 341.113281 383.800781 341.769531 381.507812 344.71875 C 380.851562 345.703125 380.195312 346.355469 379.542969 347.339844 C 377.25 350.289062 377.902344 354.222656 380.523438 356.519531 C 381.835938 357.5 383.144531 357.828125 384.453125 357.828125 C 386.417969 357.828125 388.386719 356.847656 389.695312 355.207031 C 390.351562 354.222656 391.003906 353.566406 391.660156 352.585938 C 394.28125 349.632812 393.625 345.375 390.679688 343.40625 Z M 390.679688 343.40625 " fill-opacity="1" fill-rule="nonzero"/><path fill="#fff" d="M 383.800781 97.578125 C 380.851562 99.871094 380.195312 103.804688 382.488281 106.753906 C 383.144531 107.738281 383.800781 108.394531 384.453125 109.375 C 385.765625 111.015625 387.730469 112 389.695312 112 C 391.003906 112 392.316406 111.671875 393.625 110.6875 C 396.574219 108.722656 397.230469 104.460938 395.261719 101.511719 C 394.609375 100.527344 393.953125 99.542969 393.296875 98.886719 C 391.003906 95.9375 386.746094 95.609375 383.800781 97.578125 Z M 383.800781 97.578125 " fill-opacity="1" fill-rule="nonzero"/><path fill="#fff" d="M 417.207031 183.78125 C 417.535156 184.765625 417.535156 185.746094 417.863281 186.730469 C 418.519531 190.007812 421.140625 191.976562 424.414062 191.976562 C 424.742188 191.976562 425.398438 191.976562 425.722656 191.976562 C 429.328125 191.320312 431.621094 187.714844 430.964844 184.4375 C 430.636719 183.453125 430.636719 182.140625 430.308594 181.160156 C 429.65625 177.554688 426.050781 175.257812 422.449219 176.242188 C 418.519531 176.570312 416.554688 180.175781 417.207031 183.78125 Z M 417.207031 183.78125 " fill-opacity="1" fill-rule="nonzero"/><path fill="#fff" d="M 421.792969 151.988281 C 420.484375 148.710938 416.882812 146.742188 413.277344 148.054688 C 410.003906 149.363281 408.039062 152.972656 409.347656 156.578125 C 409.675781 157.558594 410.003906 158.542969 410.332031 159.527344 C 411.3125 162.148438 413.933594 163.789062 416.554688 163.789062 C 417.207031 163.789062 417.863281 163.789062 418.847656 163.460938 C 422.121094 162.148438 424.085938 158.542969 422.777344 155.265625 C 422.449219 153.953125 422.121094 152.972656 421.792969 151.988281 Z M 421.792969 151.988281 " fill-opacity="1" fill-rule="nonzero"/><g clip-path="url(#7040c36e47)"><path fill="#fff" d="M 428.015625 233.929688 C 424.414062 233.601562 421.140625 236.226562 421.140625 239.832031 C 421.140625 240.8125 420.8125 241.796875 420.8125 243.109375 C 420.484375 246.714844 423.105469 249.992188 426.707031 250.320312 C 427.035156 250.320312 427.035156 250.320312 427.363281 250.320312 C 430.636719 250.320312 433.585938 247.695312 433.914062 244.417969 C 433.914062 243.4375 434.242188 242.125 434.242188 241.140625 C 434.242188 237.535156 431.621094 234.257812 428.015625 233.929688 Z M 428.015625 233.929688 " fill-opacity="1" fill-rule="nonzero"/></g><g clip-path="url(#c011575659)"><path fill="#fff" d="M 427.035156 204.757812 C 423.433594 205.085938 420.8125 208.035156 420.8125 211.640625 C 420.8125 212.625 420.8125 213.609375 421.140625 214.917969 C 421.464844 218.523438 424.085938 221.148438 427.691406 221.148438 C 427.691406 221.148438 428.015625 221.148438 428.015625 221.148438 C 431.621094 220.820312 434.566406 217.871094 434.242188 214.265625 C 434.242188 213.28125 434.242188 211.96875 433.914062 210.988281 C 433.914062 207.382812 430.636719 204.429688 427.035156 204.757812 Z M 427.035156 204.757812 " fill-opacity="1" fill-rule="nonzero"/></g><path fill="#fff" d="M 424.742188 263.101562 C 421.140625 262.445312 417.863281 264.414062 416.882812 268.019531 C 416.554688 269.003906 416.554688 269.984375 416.226562 270.96875 C 415.242188 274.574219 417.535156 278.179688 421.140625 278.835938 C 421.792969 278.835938 422.121094 279.164062 422.777344 279.164062 C 425.722656 279.164062 428.34375 277.195312 429 274.246094 C 429.328125 273.261719 429.65625 271.953125 429.65625 270.96875 C 430.308594 267.363281 428.015625 263.757812 424.742188 263.101562 Z M 424.742188 263.101562 " fill-opacity="1" fill-rule="nonzero"/><path fill="#fff" d="M 405.746094 318.167969 C 402.46875 316.53125 398.539062 317.511719 396.902344 320.789062 C 396.246094 321.773438 395.917969 322.757812 395.261719 323.414062 C 393.625 326.691406 394.609375 330.625 397.554688 332.261719 C 398.539062 332.917969 399.847656 333.246094 400.832031 333.246094 C 403.125 333.246094 405.417969 331.933594 406.398438 329.96875 C 407.054688 328.984375 407.382812 328 408.039062 327.019531 C 410.332031 324.070312 409.019531 320.136719 405.746094 318.167969 Z M 405.746094 318.167969 " fill-opacity="1" fill-rule="nonzero"/><path fill="#fff" d="M 417.207031 291.292969 C 413.933594 289.980469 410.003906 291.617188 408.691406 295.222656 C 408.363281 296.207031 408.039062 297.191406 407.710938 298.175781 C 406.398438 301.453125 408.039062 305.386719 411.3125 306.695312 C 411.96875 307.023438 412.949219 307.023438 413.605469 307.023438 C 416.226562 307.023438 418.847656 305.386719 419.828125 302.761719 C 420.15625 301.78125 420.484375 300.796875 421.140625 299.484375 C 422.449219 296.207031 420.484375 292.601562 417.207031 291.292969 Z M 417.207031 291.292969 " fill-opacity="1" fill-rule="nonzero"/><g clip-path="url(#a5c3045415)"><path fill="#fff" d="M 16.300781 205.742188 C 16.300781 206.726562 15.972656 208.035156 15.972656 209.019531 C 15.644531 212.625 18.265625 215.902344 21.867188 215.902344 C 22.195312 215.902344 22.195312 215.902344 22.523438 215.902344 C 25.800781 215.902344 28.746094 213.28125 29.074219 209.675781 C 29.074219 208.691406 29.402344 207.707031 29.402344 206.398438 C 29.730469 202.792969 27.109375 199.515625 23.507812 199.1875 C 19.574219 199.515625 16.628906 202.136719 16.300781 205.742188 Z M 16.300781 205.742188 " fill-opacity="1" fill-rule="nonzero"/></g><path fill="#fff" d="M 20.886719 175.914062 C 20.558594 176.898438 20.230469 178.210938 20.230469 179.191406 C 19.574219 182.796875 21.867188 186.402344 25.144531 187.058594 C 25.472656 187.058594 26.125 187.058594 26.453125 187.058594 C 29.402344 187.058594 32.023438 185.09375 33.003906 181.816406 C 33.332031 180.832031 33.332031 179.847656 33.660156 178.863281 C 34.644531 175.257812 32.351562 171.652344 28.746094 171 C 25.472656 170.34375 21.867188 172.636719 20.886719 175.914062 Z M 20.886719 175.914062 " fill-opacity="1" fill-rule="nonzero"/><path fill="#fff" d="M 32.675781 266.378906 C 32.351562 265.398438 32.351562 264.414062 32.023438 263.429688 C 31.367188 259.824219 27.765625 257.53125 24.488281 258.1875 C 20.886719 258.839844 18.59375 262.445312 19.25 265.726562 C 19.574219 266.707031 19.574219 268.019531 19.902344 269.003906 C 20.558594 271.953125 23.179688 274.246094 26.453125 274.246094 C 26.78125 274.246094 27.4375 274.246094 27.765625 274.246094 C 31.367188 273.589844 33.332031 269.984375 32.675781 266.378906 Z M 32.675781 266.378906 " fill-opacity="1" fill-rule="nonzero"/><path fill="#fff" d="M 40.539062 293.585938 C 40.210938 292.601562 39.882812 291.617188 39.554688 290.636719 C 38.246094 287.359375 34.644531 285.390625 31.367188 286.703125 C 28.09375 288.011719 26.125 291.617188 27.4375 294.898438 C 27.765625 295.878906 28.09375 296.863281 28.417969 298.175781 C 29.402344 300.796875 32.023438 302.433594 34.644531 302.433594 C 35.296875 302.433594 36.28125 302.433594 36.9375 302.109375 C 39.882812 300.796875 41.847656 297.191406 40.539062 293.585938 Z M 40.539062 293.585938 " fill-opacity="1" fill-rule="nonzero"/><path fill="#fff" d="M 30.058594 147.398438 C 29.730469 148.382812 29.402344 149.363281 28.746094 150.675781 C 27.4375 153.953125 29.074219 157.886719 32.675781 159.199219 C 33.332031 159.527344 34.316406 159.527344 34.96875 159.527344 C 37.589844 159.527344 40.210938 157.886719 41.195312 155.265625 C 41.519531 153.953125 41.847656 152.972656 42.175781 151.988281 C 43.488281 148.710938 41.847656 144.777344 38.574219 143.464844 C 35.296875 142.152344 31.367188 143.792969 30.058594 147.398438 Z M 30.058594 147.398438 " fill-opacity="1" fill-rule="nonzero"/><path fill="#fff" d="M 50.691406 316.855469 C 49.054688 313.578125 45.125 312.269531 41.847656 313.90625 C 38.574219 315.546875 37.261719 319.480469 38.902344 322.757812 C 39.554688 323.742188 39.882812 324.722656 40.539062 325.707031 C 41.847656 328 44.140625 328.984375 46.433594 328.984375 C 47.417969 328.984375 48.398438 328.65625 49.382812 328.328125 C 52.65625 326.691406 53.640625 322.757812 52.003906 319.480469 C 51.675781 318.496094 51.019531 317.511719 50.691406 316.855469 Z M 50.691406 316.855469 " fill-opacity="1" fill-rule="nonzero"/><path fill="#fff" d="M 43.160156 120.195312 C 42.503906 121.175781 42.175781 122.160156 41.519531 123.144531 C 39.882812 126.421875 40.867188 130.355469 44.140625 131.992188 C 45.125 132.648438 46.105469 132.648438 47.417969 132.648438 C 49.710938 132.648438 52.003906 131.335938 53.3125 129.371094 C 53.96875 128.386719 54.296875 127.40625 54.949219 126.75 C 56.589844 123.472656 55.605469 119.539062 52.65625 117.898438 C 48.726562 115.933594 44.796875 116.914062 43.160156 120.195312 Z M 43.160156 120.195312 " fill-opacity="1" fill-rule="nonzero"/><g clip-path="url(#2449844963)"><path fill="#fff" d="M 22.851562 245.402344 C 26.453125 245.074219 29.074219 242.125 29.074219 238.519531 C 29.074219 237.535156 29.074219 236.554688 28.746094 235.242188 C 28.417969 231.636719 25.472656 228.6875 21.867188 229.015625 C 18.265625 229.34375 15.316406 232.292969 15.644531 235.898438 C 15.644531 236.878906 15.644531 238.191406 15.972656 239.175781 C 16.300781 242.78125 18.921875 245.402344 22.523438 245.402344 C 22.523438 245.402344 22.523438 245.402344 22.851562 245.402344 Z M 22.851562 245.402344 " fill-opacity="1" fill-rule="nonzero"/></g><path fill="#fff" d="M 65.429688 340.785156 C 63.464844 337.835938 59.207031 337.179688 56.261719 339.144531 C 53.3125 341.113281 52.65625 345.375 54.621094 348.324219 C 55.277344 349.308594 55.933594 350.289062 56.589844 350.945312 C 57.898438 352.585938 59.863281 353.566406 61.828125 353.566406 C 63.140625 353.566406 64.449219 353.242188 65.757812 352.257812 C 68.707031 349.960938 69.363281 346.027344 67.070312 343.078125 C 66.742188 342.421875 66.085938 341.769531 65.429688 340.785156 Z M 65.429688 340.785156 " fill-opacity="1" fill-rule="nonzero"/><path fill="#fff" d="M 59.207031 106.753906 C 60.519531 107.738281 61.828125 108.066406 63.140625 108.066406 C 65.105469 108.066406 67.070312 107.082031 68.378906 105.445312 C 69.035156 104.460938 69.691406 103.804688 70.34375 102.820312 C 72.636719 99.871094 71.980469 95.9375 69.363281 93.644531 C 66.414062 91.347656 62.484375 92.003906 60.191406 94.628906 C 59.535156 95.609375 58.878906 96.265625 58.226562 97.25 C 55.605469 100.527344 56.261719 104.789062 59.207031 106.753906 Z M 59.207031 106.753906 " fill-opacity="1" fill-rule="nonzero"/><path fill="#fff" d="M 152.558594 220.820312 C 151.246094 219.507812 149.9375 218.523438 147.972656 217.542969 C 146.332031 216.558594 144.367188 215.574219 142.074219 214.917969 L 138.472656 213.28125 C 137.164062 212.625 135.851562 212.296875 134.871094 211.3125 C 133.886719 210.660156 133.230469 209.347656 133.230469 208.035156 C 133.230469 207.054688 133.558594 206.398438 133.886719 205.742188 C 134.214844 205.085938 134.871094 204.757812 135.199219 204.429688 C 135.851562 204.101562 136.507812 203.777344 137.164062 203.777344 C 137.816406 203.777344 138.800781 203.449219 139.457031 203.449219 C 142.074219 203.449219 144.367188 203.777344 146.332031 204.429688 C 148.300781 205.085938 149.609375 205.742188 151.246094 206.398438 C 152.230469 204.757812 152.882812 202.792969 153.210938 200.824219 C 153.867188 198.859375 154.195312 196.890625 154.195312 195.253906 C 151.246094 194.269531 148.625 193.613281 146.332031 192.960938 C 143.714844 192.304688 141.421875 192.304688 138.472656 192.304688 C 135.523438 192.304688 132.90625 192.632812 130.285156 193.285156 C 127.992188 193.941406 125.699219 195.253906 124.0625 196.566406 C 122.421875 198.203125 121.113281 199.84375 120.128906 202.136719 C 119.148438 204.429688 118.820312 206.726562 118.820312 209.347656 C 118.820312 211.640625 119.148438 213.609375 119.804688 215.246094 C 120.457031 216.886719 121.113281 218.523438 122.421875 219.835938 C 123.734375 221.148438 124.714844 222.132812 126.355469 223.113281 C 127.992188 224.097656 129.628906 224.753906 131.59375 225.410156 L 135.851562 227.046875 C 136.507812 227.375 137.164062 227.703125 137.816406 228.03125 C 138.472656 228.359375 139.128906 228.6875 139.457031 229.015625 C 139.78125 229.34375 140.4375 229.996094 140.765625 230.652344 C 141.09375 231.308594 141.09375 231.964844 141.09375 232.949219 C 141.09375 234.914062 140.4375 236.226562 138.800781 237.207031 C 137.164062 237.863281 135.199219 238.519531 132.578125 238.519531 C 128.972656 238.519531 124.714844 237.535156 120.128906 235.242188 C 119.476562 237.535156 118.820312 239.503906 118.164062 241.46875 C 117.511719 243.4375 117.183594 245.402344 117.183594 247.371094 C 120.128906 248.351562 122.75 249.335938 125.371094 249.664062 C 127.992188 250.320312 130.613281 250.320312 133.886719 250.320312 C 137.488281 250.320312 140.4375 249.992188 143.386719 249.007812 C 146.007812 248.023438 148.300781 247.042969 150.265625 245.402344 C 152.230469 243.765625 153.539062 241.796875 154.523438 239.832031 C 155.503906 237.863281 156.160156 234.914062 156.160156 231.964844 C 156.160156 229.34375 155.832031 227.375 155.175781 225.410156 C 154.523438 223.769531 153.539062 222.132812 152.558594 220.820312 Z M 152.558594 220.820312 " fill-opacity="1" fill-rule="nonzero"/><path fill="#fff" d="M 200.050781 198.859375 C 200.050781 197.875 200.050781 196.890625 200.050781 195.910156 C 200.050781 194.925781 199.722656 193.941406 199.722656 192.632812 L 159.433594 192.632812 C 159.109375 194.925781 158.78125 196.890625 158.78125 198.53125 C 158.78125 200.496094 159.109375 202.464844 159.433594 204.757812 L 172.535156 204.757812 L 172.535156 248.679688 C 175.15625 249.007812 177.449219 249.335938 179.414062 249.335938 C 181.378906 249.335938 183.671875 249.007812 186.292969 248.679688 L 186.292969 205.085938 L 199.394531 205.085938 C 200.050781 202.792969 200.050781 200.496094 200.050781 198.859375 Z M 200.050781 198.859375 " fill-opacity="1" fill-rule="nonzero"/><path fill="#fff" d="M 222.648438 192.632812 C 221.339844 192.632812 220.359375 192.632812 219.375 192.632812 C 218.066406 192.632812 217.082031 192.632812 215.773438 192.632812 C 214.460938 192.632812 213.480469 192.960938 211.839844 192.960938 L 194.15625 249.007812 C 195.792969 249.335938 197.101562 249.335938 198.414062 249.664062 C 199.722656 249.664062 200.707031 249.992188 201.6875 249.992188 C 202.671875 249.992188 203.652344 249.992188 204.636719 249.992188 C 205.617188 249.992188 206.601562 249.664062 207.910156 249.664062 L 210.859375 238.847656 C 212.167969 239.175781 213.480469 239.503906 214.789062 239.832031 C 216.097656 240.160156 217.410156 240.160156 218.390625 240.160156 C 219.703125 240.160156 221.011719 240.160156 222.324219 239.832031 C 223.632812 239.503906 224.941406 239.175781 226.582031 238.847656 L 229.527344 249.664062 C 230.839844 249.992188 231.820312 249.992188 232.804688 249.992188 C 233.785156 249.992188 234.769531 249.992188 236.078125 249.992188 C 238.371094 249.992188 240.992188 249.664062 243.941406 249.335938 L 226.582031 193.285156 C 225.269531 192.960938 223.960938 192.632812 222.648438 192.632812 Z M 221.339844 228.359375 C 220.359375 228.359375 219.703125 228.6875 218.71875 228.6875 C 217.738281 228.6875 217.082031 228.6875 216.425781 228.359375 C 215.773438 228.03125 214.789062 228.03125 213.808594 227.703125 L 219.046875 207.707031 L 223.960938 228.03125 C 223.304688 228.03125 222.324219 228.359375 221.339844 228.359375 Z M 221.339844 228.359375 " fill-opacity="1" fill-rule="nonzero"/><path fill="#fff" d="M 282.261719 222.457031 C 283.246094 221.476562 283.898438 220.492188 284.554688 219.179688 C 285.210938 217.871094 285.867188 216.558594 286.191406 214.917969 C 286.519531 213.28125 286.847656 211.640625 286.847656 209.675781 C 286.847656 206.070312 286.191406 203.121094 284.882812 200.824219 C 283.574219 198.53125 281.605469 196.566406 279.316406 195.253906 C 277.023438 193.941406 274.402344 192.960938 271.78125 192.304688 C 268.832031 191.648438 265.886719 191.320312 263.265625 191.320312 C 260.972656 191.320312 258.679688 191.320312 256.386719 191.648438 C 254.09375 191.976562 251.800781 191.976562 249.179688 192.304688 L 249.179688 248.351562 C 251.800781 248.679688 254.09375 249.007812 256.058594 249.007812 C 257.695312 249.007812 259.988281 248.679688 262.9375 248.351562 L 262.9375 204.101562 C 262.9375 204.101562 263.265625 204.101562 263.59375 204.101562 C 263.921875 204.101562 264.246094 204.101562 264.902344 204.101562 C 267.195312 204.101562 268.832031 204.757812 270.472656 206.070312 C 272.109375 207.382812 272.765625 209.019531 272.765625 211.640625 C 272.765625 212.953125 272.4375 214.265625 272.109375 215.574219 C 271.78125 216.886719 271.125 217.871094 270.472656 218.851562 C 269.816406 219.835938 269.160156 220.820312 268.503906 221.476562 C 267.851562 222.132812 267.195312 222.785156 266.539062 223.113281 L 265.886719 223.441406 L 277.023438 249.007812 C 278.003906 249.335938 279.316406 249.335938 280.625 249.335938 C 281.933594 249.335938 283.246094 249.335938 284.226562 249.335938 C 285.539062 249.335938 286.847656 249.335938 288.15625 249.335938 C 289.796875 249.335938 291.105469 249.007812 292.417969 249.007812 L 280.296875 224.753906 C 280.625 224.097656 281.605469 223.441406 282.261719 222.457031 Z M 282.261719 222.457031 " fill-opacity="1" fill-rule="nonzero"/><path fill="#fff" d="M 333.359375 196.238281 C 333.359375 195.253906 333.03125 194.269531 333.03125 192.960938 L 292.742188 192.960938 C 292.417969 195.253906 292.089844 197.21875 292.089844 198.859375 C 292.089844 200.824219 292.417969 202.792969 292.742188 205.085938 L 305.84375 205.085938 L 305.84375 249.007812 C 308.464844 249.335938 310.757812 249.664062 312.722656 249.664062 C 314.6875 249.664062 316.980469 249.335938 319.601562 249.007812 L 319.601562 205.085938 L 332.703125 205.085938 C 333.03125 202.792969 333.359375 200.496094 333.359375 198.859375 C 333.359375 197.875 333.359375 197.21875 333.359375 196.238281 Z M 333.359375 196.238281 " fill-opacity="1" fill-rule="nonzero"/></svg>