<svg xmlns="http://www.w3.org/2000/svg" xmlns:xlink="http://www.w3.org/1999/xlink" width="600" zoomAndPan="magnify" viewBox="0 0 450 449.999984" height="600" preserveAspectRatio="xMidYMid meet" version="1.0"><defs><clipPath id="10ee7ba002"><path d="M 36.328125 36.328125 L 338 36.328125 L 338 397 L 36.328125 397 Z M 36.328125 36.328125 " clip-rule="nonzero"/></clipPath><clipPath id="65b8f6d802"><path d="M 294 293 L 413.578125 293 L 413.578125 413.578125 L 294 413.578125 Z M 294 293 " clip-rule="nonzero"/></clipPath></defs><g clip-path="url(#10ee7ba002)"><path fill="#38D6BE" d="M 337.648438 211.660156 L 337.648438 141.695312 C 337.648438 135.910156 332.984375 131.214844 327.167969 131.214844 L 273.4375 131.214844 L 273.4375 125.105469 C 273.4375 116.425781 266.398438 109.386719 257.71875 109.386719 L 170.363281 109.386719 C 170.539062 107.410156 170.667969 105.417969 170.667969 103.394531 C 170.667969 66.410156 140.691406 36.4375 103.710938 36.4375 C 66.730469 36.4375 36.753906 66.410156 36.753906 103.394531 C 36.753906 140.375 66.734375 170.351562 103.710938 170.351562 C 105.859375 170.351562 107.980469 170.226562 110.082031 170.027344 L 110.082031 273.476562 C 103.554688 285.964844 95.613281 297.652344 84.996094 311.078125 C 81.070312 310.332031 76.863281 311.070312 73.289062 313.480469 L 57.171875 324.347656 C 49.972656 329.203125 48.070312 338.96875 52.925781 346.167969 L 66.0625 365.65625 C 70.082031 371.609375 77.445312 373.867188 83.949219 371.746094 L 98.808594 393.792969 C 100.429688 396.191406 103.683594 396.824219 106.082031 395.207031 L 125.292969 382.261719 C 126.652344 381.335938 127.507812 379.828125 127.589844 378.183594 C 127.679688 376.539062 126.984375 374.949219 125.722656 373.898438 L 105.988281 357.382812 C 108.65625 354.859375 110.265625 351.566406 110.730469 348.078125 C 111.28125 347.855469 111.835938 347.625 112.378906 347.410156 C 113.875 348.96875 115.96875 349.949219 118.300781 349.949219 L 257.714844 349.949219 C 266.398438 349.949219 273.433594 342.910156 273.433594 334.230469 L 273.433594 222.136719 L 327.167969 222.136719 C 332.984375 222.136719 337.644531 217.445312 337.644531 211.660156 Z M 103.710938 159.871094 C 72.519531 159.871094 47.234375 134.585938 47.234375 103.394531 C 47.234375 72.203125 72.519531 46.914062 103.710938 46.914062 C 134.902344 46.914062 160.1875 72.203125 160.1875 103.394531 C 160.1875 134.585938 134.902344 159.871094 103.710938 159.871094 Z M 82.027344 361.210938 C 79.628906 362.832031 76.371094 362.195312 74.757812 359.796875 L 61.613281 340.3125 C 59.996094 337.910156 60.628906 334.652344 63.03125 333.039062 L 79.148438 322.171875 C 81.546875 320.550781 84.800781 321.1875 86.417969 323.585938 L 99.558594 343.074219 C 101.175781 345.472656 100.546875 348.726562 98.144531 350.34375 Z M 113.660156 377.464844 L 104.570312 383.589844 L 93.011719 366.445312 L 97.152344 363.652344 Z M 108.496094 337.675781 C 108.402344 337.527344 108.347656 337.363281 108.246094 337.214844 L 95.105469 317.726562 C 94.796875 317.269531 94.417969 316.898438 94.074219 316.484375 C 104.679688 302.988281 112.757812 291.011719 119.449219 278.175781 L 120.558594 278.175781 L 120.558594 276.09375 C 123.234375 270.808594 125.6875 265.265625 128.027344 259.4375 C 132.21875 272.695312 137.214844 283.835938 143.960938 293.917969 C 151.019531 304.476562 159.910156 313.691406 171.410156 322.949219 C 148.859375 324.566406 130.328125 328.921875 108.496094 337.675781 Z M 136.59375 237.429688 C 138.679688 236.023438 141.382812 236.207031 143.179688 237.777344 C 157.746094 250.507812 167.921875 261.585938 175.90625 273.574219 C 183.890625 285.566406 189.824219 298.671875 195.6875 315.628906 C 196.476562 317.917969 195.621094 320.515625 193.511719 321.933594 C 191.574219 323.246094 189.082031 323.199219 187.296875 321.902344 C 171.46875 310.464844 160.695312 300.089844 152.667969 288.09375 C 144.636719 276.082031 139.144531 262.132812 134.320312 243.222656 C 133.773438 241.074219 134.65625 238.734375 136.59375 237.429688 Z M 262.957031 334.226562 C 262.957031 337.125 260.613281 339.46875 257.71875 339.46875 L 135.457031 339.46875 C 151.191406 335.136719 166.578125 333.199219 185.714844 332.722656 L 185.714844 332.660156 C 190.273438 334.070312 195.316406 333.359375 199.367188 330.628906 C 205.316406 326.621094 207.972656 319.097656 205.589844 312.207031 C 199.558594 294.757812 193.277344 280.753906 184.625 267.769531 C 175.972656 254.78125 165.097656 243.015625 150.074219 229.886719 C 144.601562 225.101562 136.65625 224.753906 130.734375 228.738281 C 126.589844 231.535156 124.019531 236.078125 123.710938 240.945312 C 122.679688 244.023438 121.625 246.933594 120.558594 249.792969 L 120.558594 168.125 C 144.101562 162.011719 162.558594 143.457031 168.539062 119.867188 L 257.714844 119.867188 C 260.613281 119.867188 262.957031 122.207031 262.957031 125.105469 L 262.957031 131.214844 L 223.941406 131.214844 C 218.15625 131.214844 213.464844 135.910156 213.464844 141.695312 L 213.464844 211.660156 C 213.464844 217.441406 218.15625 222.136719 223.941406 222.136719 L 230.238281 222.136719 L 233.84375 230.515625 C 237.21875 238.371094 248.070312 239.09375 252.460938 231.757812 L 258.21875 222.136719 L 262.957031 222.136719 Z M 258.21875 211.660156 C 254.535156 211.660156 251.121094 213.59375 249.230469 216.757812 L 243.46875 226.375 L 239.867188 217.992188 C 238.210938 214.148438 234.425781 211.660156 230.242188 211.660156 L 223.941406 211.660156 L 223.941406 141.695312 L 327.167969 141.695312 L 327.167969 211.660156 Z M 258.21875 211.660156 " fill-opacity="1" fill-rule="nonzero"/></g><path fill="#38D6BE" d="M 244.246094 164.214844 C 237.066406 164.214844 231.25 170.03125 231.25 177.207031 C 231.25 184.386719 237.066406 190.203125 244.246094 190.203125 C 251.417969 190.203125 257.242188 184.386719 257.242188 177.207031 C 257.242188 170.03125 251.417969 164.214844 244.246094 164.214844 Z M 244.246094 179.722656 C 242.859375 179.722656 241.730469 178.597656 241.730469 177.207031 C 241.730469 175.820312 242.859375 174.691406 244.246094 174.691406 C 245.632812 174.691406 246.761719 175.820312 246.761719 177.207031 C 246.761719 178.597656 245.632812 179.722656 244.246094 179.722656 Z M 244.246094 179.722656 " fill-opacity="1" fill-rule="nonzero"/><path fill="#38D6BE" d="M 275.683594 164.214844 C 268.503906 164.214844 262.6875 170.03125 262.6875 177.207031 C 262.6875 184.386719 268.503906 190.203125 275.683594 190.203125 C 282.855469 190.203125 288.679688 184.386719 288.679688 177.207031 C 288.679688 170.03125 282.855469 164.214844 275.683594 164.214844 Z M 275.683594 179.722656 C 274.296875 179.722656 273.167969 178.597656 273.167969 177.207031 C 273.167969 175.820312 274.296875 174.691406 275.683594 174.691406 C 277.070312 174.691406 278.199219 175.820312 278.199219 177.207031 C 278.199219 178.597656 277.070312 179.722656 275.683594 179.722656 Z M 275.683594 179.722656 " fill-opacity="1" fill-rule="nonzero"/><path fill="#38D6BE" d="M 307.121094 164.214844 C 299.941406 164.214844 294.125 170.03125 294.125 177.207031 C 294.125 184.386719 299.941406 190.203125 307.121094 190.203125 C 314.292969 190.203125 320.09375 184.386719 320.09375 177.207031 C 320.09375 170.03125 314.292969 164.214844 307.121094 164.214844 Z M 307.121094 179.722656 C 305.734375 179.722656 304.605469 178.597656 304.605469 177.207031 C 304.605469 175.820312 305.734375 174.691406 307.121094 174.691406 C 308.507812 174.691406 309.636719 175.820312 309.636719 177.207031 C 309.636719 178.597656 308.507812 179.722656 307.121094 179.722656 Z M 307.121094 179.722656 " fill-opacity="1" fill-rule="nonzero"/><g clip-path="url(#65b8f6d802)"><path fill="#38D6BE" d="M 353.890625 293.921875 C 320.878906 293.921875 294.125 320.683594 294.125 353.691406 C 294.125 386.703125 320.878906 413.464844 353.890625 413.464844 C 386.898438 413.464844 413.671875 386.703125 413.671875 353.691406 C 413.671875 320.683594 386.898438 293.921875 353.890625 293.921875 Z M 353.890625 402.988281 C 326.695312 402.988281 304.605469 380.917969 304.605469 353.691406 C 304.605469 326.46875 326.695312 304.398438 353.890625 304.398438 C 381.136719 304.398438 403.195312 326.46875 403.195312 353.691406 C 403.195312 380.917969 381.136719 402.988281 353.890625 402.988281 Z M 353.890625 402.988281 " fill-opacity="1" fill-rule="nonzero"/></g><path fill="#38D6BE" d="M 377.152344 345.089844 L 350.746094 329.113281 C 343.828125 324.9375 334.976562 329.800781 334.816406 337.871094 L 334.1875 368.734375 C 334.03125 376.800781 342.675781 382.019531 349.75 378.125 L 376.785156 363.234375 C 383.859375 359.34375 384.070312 349.261719 377.152344 345.089844 Z M 344.667969 368.945312 L 345.296875 338.078125 L 371.703125 354.054688 Z M 344.667969 368.945312 " fill-opacity="1" fill-rule="nonzero"/><path fill="#38D6BE" d="M 103.710938 103.402344 C 115.5625 103.402344 125.167969 93.792969 125.167969 81.949219 C 125.167969 70.101562 115.5625 60.492188 103.710938 60.492188 C 91.859375 60.492188 82.253906 70.09375 82.253906 81.949219 C 82.253906 93.800781 91.863281 103.402344 103.710938 103.402344 Z M 103.710938 70.96875 C 109.773438 70.96875 114.6875 75.886719 114.6875 81.949219 C 114.6875 88.007812 109.773438 92.925781 103.710938 92.925781 C 97.648438 92.925781 92.734375 88.007812 92.734375 81.949219 C 92.734375 75.886719 97.648438 70.96875 103.710938 70.96875 Z M 103.710938 70.96875 " fill-opacity="1" fill-rule="nonzero"/><path fill="#38D6BE" d="M 103.710938 107.046875 C 87.46875 107.046875 74.300781 120.210938 74.300781 136.453125 C 74.300781 139.347656 76.648438 141.695312 79.539062 141.695312 L 127.878906 141.695312 C 130.777344 141.695312 133.121094 139.347656 133.121094 136.453125 C 133.121094 120.210938 119.953125 107.046875 103.710938 107.046875 Z M 85.511719 131.214844 C 87.785156 123.308594 95.074219 117.523438 103.710938 117.523438 C 112.351562 117.523438 119.636719 123.308594 121.90625 131.214844 Z M 85.511719 131.214844 " fill-opacity="1" fill-rule="nonzero"/></svg>