<svg xmlns="http://www.w3.org/2000/svg" xmlns:xlink="http://www.w3.org/1999/xlink" width="1100" zoomAndPan="magnify" viewBox="0 0 824.88 824.999997" height="1100" preserveAspectRatio="xMidYMid meet" version="1.0"><defs><clipPath id="a3d5180973"><path d="M 0 0.0585938 L 824.761719 0.0585938 L 824.761719 824.9375 L 0 824.9375 Z M 0 0.0585938 " clip-rule="nonzero"/></clipPath><clipPath id="15e8498831"><path d="M 1 17 L 824 17 L 824 808.441406 L 1 808.441406 Z M 1 17 " clip-rule="nonzero"/></clipPath><clipPath id="95d7488c0a"><path d="M 1 34 L 820 34 L 820 808.441406 L 1 808.441406 Z M 1 34 " clip-rule="nonzero"/></clipPath><clipPath id="238fab8164"><path d="M 43 17 L 824.761719 17 L 824.761719 761 L 43 761 Z M 43 17 " clip-rule="nonzero"/></clipPath></defs><g clip-path="url(#a3d5180973)"><path fill="#ffffff" d="M 0 0.0585938 L 824.878906 0.0585938 L 824.878906 824.941406 L 0 824.941406 Z M 0 0.0585938 " fill-opacity="1" fill-rule="nonzero"/><path fill="#ffffff" d="M 0 0.0585938 L 824.878906 0.0585938 L 824.878906 824.941406 L 0 824.941406 Z M 0 0.0585938 " fill-opacity="1" fill-rule="nonzero"/></g><g clip-path="url(#15e8498831)"><path fill="#000000" d="M 1.671875 454.628906 C 1.765625 449.152344 1.914062 443.589844 2.050781 438.207031 C 2.523438 420.25 3.011719 401.683594 1.75 383.480469 C 1.625 383.003906 1.585938 382.574219 1.632812 382.15625 C 1.585938 381.835938 1.578125 381.515625 1.613281 381.207031 C 1.769531 379.9375 1.878906 378.628906 1.980469 377.367188 C 2.265625 373.929688 2.558594 370.375 3.867188 367.046875 C 4.21875 366.226562 4.570312 365.371094 4.914062 364.484375 C 12.816406 344.230469 25.515625 326.824219 41.640625 314.152344 C 49.113281 308.277344 53.460938 305.429688 55.722656 304.914062 C 59.117188 301.492188 63.140625 298.257812 67.859375 295.253906 C 86.96875 285.753906 108.808594 285.964844 129.914062 286.183594 C 138.746094 286.269531 147.890625 286.363281 156.597656 285.71875 C 190.105469 284.359375 223.554688 284.621094 263.464844 285.429688 C 271.28125 285.40625 279.753906 285.546875 289.960938 285.875 C 290.109375 262.925781 291.074219 239.613281 292.011719 217.0625 C 293.457031 182.273438 294.953125 146.296875 293.476562 110.941406 C 293.410156 110.613281 293.40625 110.269531 293.460938 109.917969 C 293.289062 109.480469 293.230469 108.976562 293.273438 108.433594 C 293.722656 98.535156 296.789062 90.222656 302.355469 83.765625 C 310.816406 69.921875 326.015625 53.09375 336.460938 42.886719 L 336.761719 42.589844 C 337.195312 40.304688 337.890625 38.097656 340.3125 38.097656 C 340.605469 38.214844 340.820312 38.382812 341.039062 38.546875 L 341.101562 38.488281 C 342.371094 37.324219 343.582031 36.257812 344.695312 35.324219 C 353.730469 24.902344 369.035156 19.296875 390.164062 18.660156 C 410.390625 16.820312 430.960938 17.464844 450.859375 18.085938 C 459.996094 18.371094 469.441406 18.664062 478.726562 18.714844 C 484.839844 18.726562 491.300781 19.609375 498.476562 21.410156 C 500.289062 20.710938 502.800781 21.757812 504.617188 22.773438 C 536.148438 40.839844 536.550781 84.578125 536.878906 119.71875 C 536.933594 125.820312 536.988281 131.585938 537.199219 136.96875 C 537.507812 165.640625 537.148438 194.785156 536.804688 222.972656 C 536.5625 242.472656 536.316406 262.636719 536.292969 282.46875 C 537.046875 283.289062 537.34375 284.382812 537.105469 285.457031 C 537.511719 285.65625 537.976562 285.839844 538.46875 286.027344 L 538.808594 286.148438 C 539.914062 286.367188 540.84375 286.53125 541.789062 286.636719 C 550.898438 287.652344 559.582031 287.511719 568.785156 287.363281 C 570.515625 287.335938 572.253906 287.308594 574.007812 287.285156 C 593.042969 286.808594 612.320312 287.75 630.964844 288.660156 C 650.832031 289.632812 671.378906 290.640625 691.660156 289.921875 C 696.765625 289.738281 701.875 289.523438 706.980469 289.308594 C 725.609375 288.515625 744.875 287.703125 763.851562 288.484375 L 764.078125 288.492188 C 780.582031 289.242188 799.292969 290.09375 811.746094 303.167969 C 814.515625 305.253906 822.167969 315.40625 820.460938 320.03125 C 824.152344 339.917969 824.058594 360.746094 823.964844 380.886719 C 823.953125 383.699219 823.9375 386.507812 823.9375 389.304688 L 823.925781 391.171875 C 823.816406 409.054688 823.703125 427.546875 821.308594 445.441406 C 821.238281 446.179688 820.976562 446.828125 820.550781 447.316406 C 819.929688 449.929688 819.175781 452.484375 818.3125 454.910156 C 818.121094 456.351562 817.425781 457.683594 816.71875 458.921875 C 815.246094 462.300781 813.5 465.421875 811.527344 468.1875 C 801.011719 485.753906 787.167969 500.964844 775.019531 513.515625 C 768.25 521.253906 759.886719 529.515625 749.191406 532.136719 C 734.746094 538.058594 717.054688 538.496094 698.324219 538.957031 C 698.28125 538.960938 698.238281 538.960938 698.199219 538.960938 C 697.835938 538.960938 697.5 538.914062 697.191406 538.820312 C 693.019531 538.878906 688.726562 538.351562 684.59375 537.835938 C 681.207031 537.417969 677.703125 536.984375 674.28125 536.878906 C 665.21875 536.574219 655.996094 536.761719 647.074219 536.953125 C 639.871094 537.097656 632.421875 537.257812 625.097656 537.144531 C 607.550781 536.976562 589.707031 536.9375 572.449219 536.898438 C 560.070312 536.875 547.277344 536.84375 534.691406 536.765625 C 534.5 543.625 534.320312 550.921875 534.375 558.265625 C 533.898438 573.636719 534.675781 589.242188 535.429688 604.335938 C 535.632812 608.378906 535.832031 612.429688 536.011719 616.480469 C 536.496094 632.265625 536.140625 648.3125 535.796875 663.832031 C 535.710938 667.773438 535.621094 671.722656 535.546875 675.671875 C 535.355469 679.691406 535.257812 683.8125 535.167969 687.796875 C 535.046875 692.980469 534.917969 698.339844 534.582031 703.597656 C 536.667969 708.871094 532.535156 723.171875 531.214844 727.449219 C 520.347656 761.03125 498.488281 786.800781 471.285156 798.128906 C 462.84375 803.9375 451.988281 807.023438 438.113281 807.550781 C 437.722656 807.574219 437.363281 807.554688 437.042969 807.476562 C 436.078125 807.59375 435.074219 807.542969 434.101562 807.492188 C 433.210938 807.453125 432.285156 807.40625 431.398438 807.492188 C 425.285156 807.589844 419.101562 807.570312 413.125 807.554688 C 402.609375 807.507812 391.726562 807.492188 380.902344 808.0625 C 377.636719 808.113281 374.46875 808.136719 371.386719 808.136719 C 356.40625 808.136719 343.492188 807.558594 331.324219 806.367188 C 331.054688 806.34375 330.804688 806.300781 330.566406 806.234375 C 329.933594 806.3125 329.277344 806.300781 328.644531 806.289062 L 328.449219 806.285156 C 321.851562 805.878906 314.925781 803.347656 308.429688 798.984375 C 294.351562 790.71875 291.414062 773.347656 290.429688 761.007812 C 289.425781 752.0625 289.167969 742.898438 288.914062 734.035156 C 288.746094 728.148438 288.578125 722.0625 288.1875 716.09375 C 287.019531 683.8125 288.226562 650.953125 289.394531 619.171875 C 290.09375 599.976562 290.824219 580.121094 291.023438 560.617188 C 290.996094 556.605469 290.878906 552.242188 290.765625 548.027344 C 290.71875 546.21875 290.667969 544.414062 290.628906 542.621094 C 290.652344 542.011719 290.613281 541.292969 290.566406 540.53125 C 290.507812 539.535156 290.449219 538.507812 290.527344 537.550781 C 284.699219 536.894531 278.972656 536.761719 272.921875 536.621094 C 271.195312 536.578125 269.453125 536.539062 267.695312 536.484375 C 258.566406 536.597656 249.441406 536.703125 240.3125 536.8125 C 198.128906 537.3125 154.515625 537.832031 111.605469 538.714844 C 103.574219 538.652344 95.441406 538.308594 87.570312 537.96875 C 80.558594 537.671875 73.308594 537.359375 66.128906 537.25 C 65.746094 537.28125 65.351562 537.226562 64.976562 537.117188 C 64.335938 537.175781 63.691406 537.242188 63.042969 537.3125 C 62.324219 537.386719 61.597656 537.460938 60.847656 537.527344 C 38.15625 537.527344 21.507812 531.84375 11.367188 520.621094 L 11.105469 520.300781 C 10.40625 519.425781 9.683594 518.523438 9.203125 517.503906 C 0.363281 509.054688 1.507812 460.195312 1.671875 454.628906 Z M 1.671875 454.628906 " fill-opacity="1" fill-rule="nonzero"/></g><g clip-path="url(#95d7488c0a)"><path fill="#d0fde8" d="M 233.769531 489.386719 L 234.039062 489.335938 L 233.933594 488.199219 L 233.660156 488.207031 C 231.253906 488.234375 228.851562 488.269531 226.445312 488.304688 L 220.382812 488.390625 L 220.371094 489.566406 L 220.660156 489.574219 C 223.105469 489.648438 225.214844 489.683594 227.113281 489.683594 C 229.019531 489.683594 230.800781 489.648438 232.566406 489.574219 L 232.609375 489.570312 C 232.863281 489.523438 233.066406 489.492188 233.265625 489.464844 L 233.429688 489.441406 C 233.542969 489.421875 233.65625 489.40625 233.769531 489.386719 Z M 265.332031 489.011719 L 264.660156 488.988281 L 264.671875 487.8125 L 264.960938 487.8125 C 265.296875 487.8125 265.628906 487.804688 265.976562 487.800781 L 266.355469 487.792969 L 266.414062 488.964844 L 265.648438 489.015625 C 265.542969 489.015625 265.4375 489.015625 265.332031 489.011719 Z M 336.597656 46.316406 C 332.613281 62.378906 331.082031 77.988281 332.042969 92.726562 C 332.394531 101.429688 332.011719 110.226562 331.507812 119.992188 C 331.394531 126.171875 331.453125 132.4375 331.515625 138.496094 L 331.515625 138.578125 C 331.621094 149.132812 331.734375 160.046875 330.882812 170.707031 C 330.875 176.011719 330.988281 181.351562 331.097656 186.515625 C 331.394531 200.277344 331.699219 214.515625 329.675781 228.476562 C 328.058594 241.195312 328.617188 254.28125 329.152344 266.9375 C 329.414062 273.042969 329.707031 279.964844 329.699219 286.566406 C 329.683594 287.050781 329.867188 287.484375 330.214844 287.78125 L 330.78125 288.269531 L 331.257812 287.886719 C 331.5625 287.640625 331.734375 287.179688 331.765625 286.507812 C 331.945312 284.015625 332.085938 281.476562 332.21875 279.027344 L 332.300781 277.566406 C 332.34375 276.773438 332.390625 275.976562 332.433594 275.179688 L 332.453125 274.898438 L 333.613281 274.914062 L 333.621094 275.199219 C 333.742188 279.371094 333.835938 283.867188 333.667969 288.460938 L 333.652344 289.078125 L 332.378906 288.992188 C 332.113281 288.976562 331.847656 288.960938 331.585938 288.941406 L 331.5625 288.941406 L 331.574219 288.949219 L 329.785156 288.824219 C 315.796875 287.859375 302.859375 287.1875 290.230469 286.777344 L 289.65625 286.757812 L 289.660156 286.179688 C 289.800781 263.121094 290.777344 239.699219 291.714844 217.046875 C 293.164062 182.265625 294.65625 146.296875 293.1875 111 C 293.117188 110.664062 293.105469 110.308594 293.15625 109.953125 C 292.992188 109.492188 292.929688 108.972656 292.980469 108.417969 C 293.429688 98.453125 296.507812 90.09375 302.105469 83.609375 C 310.574219 69.75 325.792969 52.894531 336.25 42.675781 L 337.574219 41.382812 L 337.160156 43.765625 C 336.996094 44.703125 336.847656 45.585938 336.597656 46.316406 Z M 333.664062 491.585938 C 333.671875 491.75 333.675781 491.914062 333.683594 492.078125 L 333.921875 496.625 L 332.503906 492.226562 C 332.425781 491.984375 332.347656 491.738281 332.242188 491.5 L 331.914062 490.753906 L 333.617188 490.566406 Z M 534.398438 537.0625 C 547.570312 537.144531 561.363281 537.171875 572.449219 537.195312 L 572.9375 537.199219 C 590.039062 537.234375 607.714844 537.273438 625.09375 537.441406 C 632.320312 537.550781 639.671875 537.402344 646.785156 537.253906 L 647.082031 537.246094 C 655.527344 537.070312 665.101562 536.871094 674.273438 537.175781 C 677.648438 537.28125 681.105469 537.707031 684.453125 538.117188 L 684.558594 538.132812 C 688.304688 538.597656 692.523438 539.125 696.589844 539.125 C 696.777344 539.125 696.964844 539.121094 697.148438 539.121094 C 697.472656 539.210938 697.824219 539.257812 698.199219 539.257812 C 698.246094 539.257812 698.292969 539.257812 698.34375 539.253906 C 717.085938 538.792969 734.804688 538.355469 749.304688 532.414062 C 760.042969 529.78125 768.445312 521.480469 775.246094 513.710938 C 787.398438 501.152344 801.253906 485.929688 811.785156 468.34375 L 811.929688 468.09375 L 810.953125 467.460938 L 810.789062 467.691406 C 805.097656 475.664062 797.234375 481.191406 786.742188 484.582031 C 784.71875 485.726562 782.273438 486.164062 780.121094 486.546875 L 779.832031 486.597656 C 779.601562 486.625 779.332031 486.652344 779.0625 486.679688 L 778.40625 486.742188 C 767.699219 488.90625 755.839844 489.359375 742.558594 489.695312 C 740.035156 490.089844 737.609375 490.457031 735.230469 490.679688 C 730.894531 491.128906 726.53125 491.042969 722.3125 490.964844 C 718.480469 490.886719 714.128906 490.800781 709.945312 491.183594 C 704.652344 491.671875 699.316406 490.941406 694.15625 490.238281 C 690.621094 489.757812 687.03125 489.269531 683.464844 489.144531 C 679.175781 489.15625 674.867188 489.351562 670.703125 489.542969 C 664.535156 489.828125 658.152344 490.125 651.867188 489.808594 C 648.476562 489.671875 644.996094 489.40625 641.925781 489.175781 L 640.589844 489.074219 L 640.480469 489.578125 C 640.398438 489.960938 640.210938 490.480469 639.796875 490.761719 C 638.113281 492.347656 636.535156 494.183594 635.136719 495.800781 C 634.207031 496.886719 633.046875 498.234375 631.90625 499.425781 C 626.535156 504.777344 621.722656 510.75 617.070312 516.527344 C 613.699219 520.71875 610.210938 525.050781 606.503906 529.140625 C 606.214844 529.519531 605.789062 529.730469 605.339844 529.730469 C 605.328125 529.730469 605.320312 529.730469 605.308594 529.730469 C 604.917969 529.714844 604.570312 529.515625 604.359375 529.179688 C 603.695312 528.21875 603.773438 526.699219 604.523438 525.847656 C 609.515625 519.929688 614.808594 514.351562 620.257812 509.253906 C 623.84375 505.75 627.011719 501.753906 630.074219 497.886719 C 632.234375 495.160156 634.433594 492.378906 636.777344 489.769531 L 637.601562 488.859375 L 636.375 488.785156 C 629.550781 488.335938 622.214844 488.117188 614.8125 489.515625 C 603.164062 489.695312 591.222656 490.046875 579.679688 490.382812 L 578.929688 490.402344 C 575.632812 490.503906 572.339844 490.597656 569.046875 490.695312 C 566.714844 490.539062 564.296875 490.300781 561.960938 490.070312 L 561.746094 490.046875 C 556.90625 489.570312 551.90625 489.066406 546.890625 489.347656 C 546.15625 489.226562 545.105469 489.347656 543.996094 489.46875 C 540.535156 489.847656 538.933594 489.707031 538.683594 487.863281 C 538.703125 487.800781 538.707031 487.730469 538.703125 487.675781 L 538.691406 487.101562 L 538.117188 487.097656 C 537.847656 487.089844 537.578125 487.085938 537.304688 487.082031 L 536.898438 487.078125 C 536.488281 487.074219 536.082031 487.070312 535.679688 487.0625 C 535.617188 487.046875 535.558594 487.0625 535.488281 487.070312 L 534.839844 487.074219 L 534.808594 487.632812 C 534.507812 493.09375 534.378906 497.917969 534.410156 502.390625 C 534.515625 512.0625 534.226562 521.878906 533.949219 531.375 L 533.785156 537.0625 Z M 606.5 507.695312 C 613.0625 502.097656 618.941406 496.242188 623.992188 490.269531 C 624.15625 490.128906 624.367188 490.042969 624.582031 490.042969 L 624.675781 490.050781 C 624.917969 490.074219 625.152344 490.222656 625.316406 490.460938 C 626.878906 493.738281 618.011719 501.359375 612.710938 505.910156 C 610.511719 507.804688 608.609375 509.4375 607.625 510.550781 C 607.429688 510.691406 607.082031 510.871094 606.742188 510.742188 C 606.363281 510.582031 606.050781 510.039062 605.964844 509.390625 C 605.890625 508.828125 605.992188 508.085938 606.5 507.695312 Z M 337.03125 77.160156 L 337.039062 77.441406 C 337.253906 87.984375 337.257812 98.964844 337.050781 111.011719 L 337.046875 111.292969 L 335.890625 111.335938 L 335.863281 111.054688 C 335.65625 108.855469 335.410156 106.800781 335.105469 104.707031 C 334.800781 95.332031 335.050781 86.140625 335.851562 77.398438 L 335.878906 77.117188 Z M 8.957031 517.679688 C 9.449219 518.707031 10.164062 519.601562 10.859375 520.46875 L 11.132812 520.808594 C 21.34375 532.105469 38.0625 537.824219 60.847656 537.824219 C 61.625 537.757812 62.351562 537.683594 63.074219 537.609375 L 63.179688 537.597656 C 63.773438 537.535156 64.363281 537.476562 64.945312 537.417969 C 65.363281 537.535156 65.757812 537.574219 66.152344 537.546875 C 73.246094 537.65625 80.441406 537.964844 87.402344 538.261719 L 87.558594 538.269531 C 95.390625 538.605469 103.492188 538.949219 111.605469 539.011719 C 154.910156 538.125 198.328125 537.609375 240.316406 537.113281 L 249.441406 537.003906 C 255.53125 536.929688 261.613281 536.855469 267.699219 536.78125 C 269.402344 536.835938 271.105469 536.875 272.792969 536.914062 L 272.917969 536.917969 C 278.886719 537.058594 284.503906 537.191406 290.210938 537.816406 C 290.164062 538.699219 290.214844 539.628906 290.265625 540.527344 C 290.316406 541.335938 290.355469 542.03125 290.332031 542.609375 C 290.359375 543.949219 290.394531 545.273438 290.429688 546.597656 L 290.46875 548.035156 C 290.59375 552.625 290.699219 556.738281 290.726562 560.621094 C 290.527344 580.035156 289.804688 599.808594 289.105469 618.929688 L 289.097656 619.164062 C 287.929688 650.933594 286.722656 683.789062 287.890625 716.105469 C 288.28125 722.078125 288.453125 728.164062 288.617188 734.042969 L 288.621094 734.140625 C 288.871094 742.980469 289.132812 752.117188 290.132812 761.042969 C 291.125 773.445312 294.082031 790.90625 308.277344 799.242188 C 314.8125 803.632812 321.785156 806.171875 328.429688 806.582031 L 328.746094 806.589844 C 329.335938 806.601562 329.945312 806.609375 330.546875 806.535156 C 330.785156 806.597656 331.03125 806.640625 331.296875 806.664062 C 343.4375 807.855469 356.550781 808.429688 371.386719 808.429688 C 374.515625 808.429688 377.71875 808.410156 380.910156 808.359375 C 391.457031 807.808594 401.734375 807.800781 413.125 807.851562 C 419.09375 807.871094 425.257812 807.882812 431.402344 807.789062 C 432.265625 807.707031 433.148438 807.746094 434.003906 807.785156 L 434.089844 807.789062 C 435.003906 807.835938 436.042969 807.890625 437.027344 807.777344 C 437.351562 807.847656 437.710938 807.867188 438.132812 807.847656 C 452.058594 807.320312 462.964844 804.21875 471.457031 798.371094 C 498.703125 787.03125 520.605469 761.203125 531.496094 727.542969 C 532.832031 723.21875 537.023438 708.707031 534.832031 703.402344 L 533.855469 701.03125 L 533.691406 703.589844 C 533.136719 712.144531 532.097656 718.972656 530.425781 725.078125 C 527.925781 732.195312 524.441406 738.222656 520.078125 742.976562 L 519.730469 743.347656 L 520.050781 743.75 C 520.476562 744.28125 520.632812 744.847656 520.472656 745.269531 C 519.546875 747.058594 517.53125 748.152344 515.585938 749.214844 C 515.039062 749.511719 514.503906 749.800781 514 750.101562 C 506.03125 755.472656 496.230469 758.054688 483.140625 758.246094 C 476.726562 759.441406 470.257812 759.109375 463.996094 758.792969 C 457.808594 758.484375 451.433594 758.15625 445.125 759.238281 C 441.332031 759.65625 437.496094 759.097656 434.25 758.484375 C 431.144531 758.542969 427.136719 758.636719 423.101562 758.851562 C 403.941406 759.109375 388.214844 758.585938 373.640625 757.15625 C 373.410156 757.140625 373.203125 757.101562 372.996094 757.039062 L 372.808594 757.015625 C 372.148438 757.097656 371.480469 757.082031 370.894531 757.078125 L 370.710938 757.074219 C 364.296875 756.675781 357.527344 754.199219 351.144531 749.914062 C 351.074219 749.871094 351.027344 749.839844 350.984375 749.804688 L 350.980469 749.804688 L 350.769531 749.667969 C 349.539062 748.988281 348.34375 748.175781 347.203125 747.242188 L 346.570312 746.726562 L 346.277344 747.484375 C 345.953125 748.292969 345.480469 749.144531 344.78125 750.15625 C 341.640625 754.457031 338.089844 758.613281 334.230469 762.503906 C 329.921875 766.609375 325.925781 771.125 322.066406 775.492188 C 319.351562 778.5625 316.277344 782.039062 313.171875 785.242188 C 312.925781 785.554688 312.609375 785.722656 312.285156 785.722656 C 311.945312 785.710938 311.675781 785.554688 311.503906 785.292969 C 310.980469 784.539062 311.039062 783.25 311.621094 782.632812 C 315.511719 778.390625 319.359375 774.273438 323.6875 770.5 C 330.820312 763.148438 338.886719 754.839844 344.285156 745.097656 L 344.488281 744.722656 L 344.207031 744.40625 C 342.378906 742.402344 340.800781 740.140625 339.636719 737.863281 L 339.453125 737.265625 C 339.425781 737.175781 339.398438 737.089844 339.367188 737 C 336.222656 730.707031 334.382812 722.96875 333.554688 712.609375 C 333.332031 710.621094 333.136719 708.539062 332.964844 706.234375 C 332.175781 700.675781 331.839844 695.003906 331.515625 689.519531 L 331.464844 688.730469 C 329.640625 676.511719 329.175781 665.210938 330.035156 654.148438 C 330.363281 648.582031 329.796875 642.957031 329.253906 637.519531 C 329.109375 636.082031 328.972656 634.671875 328.84375 633.261719 C 327.9375 622.941406 328.910156 612.417969 329.855469 602.246094 L 330.039062 600.242188 C 330.0625 595.945312 329.953125 591.671875 329.84375 587.535156 C 329.597656 577.980469 329.34375 568.109375 330.691406 558.4375 C 330.488281 550.386719 330.761719 542.328125 331.03125 534.53125 C 331.347656 525.269531 331.679688 515.695312 331.1875 506.191406 C 331.226562 502.738281 330.816406 499.253906 330.421875 495.878906 C 330.257812 494.464844 330.085938 493.003906 329.953125 491.558594 L 329.902344 490.976562 L 329.3125 491.023438 C 322.835938 491.53125 316.296875 491.222656 309.972656 490.929688 C 307.015625 490.792969 303.660156 490.636719 300.382812 490.585938 C 296.375 490.605469 292.414062 491.136719 288.578125 491.648438 C 285.183594 492.097656 281.667969 492.566406 278.191406 492.675781 C 275.710938 492.71875 273.210938 492.648438 270.652344 492.570312 C 265.988281 492.429688 261.164062 492.285156 256.402344 492.960938 C 250.847656 493.355469 245.191406 492.839844 239.71875 492.332031 C 234.335938 491.832031 228.785156 491.316406 223.234375 491.675781 C 207.59375 493.117188 192.75 492.953125 177.839844 491.164062 C 172.539062 490.707031 167.179688 491.015625 162 491.308594 C 155.730469 491.683594 149.292969 492.058594 142.933594 491.058594 C 140.117188 491.019531 137.390625 491.015625 134.660156 491.007812 C 123.191406 490.980469 111.34375 490.953125 99.792969 488.8125 C 96.910156 488.648438 94.007812 488.679688 91.203125 488.703125 L 90.988281 488.707031 C 85.484375 488.769531 79.78125 488.839844 74.324219 487.511719 C 73.9375 487.421875 73.5625 487.3125 73.1875 487.210938 L 72.246094 486.941406 L 72.046875 487.4375 C 71.445312 488.933594 70.136719 490.171875 68.875 491.371094 C 68.175781 492.035156 67.476562 492.699219 66.890625 493.394531 C 63.613281 496.890625 60.207031 500.464844 56.714844 504.121094 C 52.625 508.410156 47.988281 513.269531 43.585938 518.007812 C 43.40625 518.203125 43.207031 518.320312 43.027344 518.289062 C 42.960938 518.289062 42.8125 518.277344 42.652344 518.050781 C 42.316406 517.574219 42.351562 516.757812 42.722656 516.359375 C 45.109375 513.828125 47.488281 511.28125 49.859375 508.75 C 52.84375 505.640625 55.683594 502.167969 58.421875 498.808594 C 61.804688 494.664062 65.296875 490.382812 69.121094 486.746094 L 69.777344 486.117188 L 68.9375 485.765625 C 58.523438 481.417969 49.898438 471.558594 46.433594 460.027344 C 46.277344 459.449219 46.300781 458.960938 46.507812 458.621094 C 46.652344 458.394531 46.882812 458.234375 47.160156 458.179688 L 47.746094 458.0625 L 47.625 457.476562 C 47.007812 454.503906 46.484375 451.027344 46.066406 447.132812 L 46.027344 446.761719 L 45.675781 446.636719 C 44.914062 446.371094 44.847656 445.480469 44.828125 444.15625 C 44.824219 443.71875 44.816406 443.308594 44.761719 442.917969 C 43.125 427.226562 43.898438 411.148438 44.640625 395.597656 C 45.476562 378.164062 46.339844 360.148438 43.832031 342.53125 C 43.644531 341.683594 44.160156 340.902344 44.738281 340.714844 L 45.167969 340.570312 L 45.144531 340.121094 C 45.203125 339.566406 48.242188 330.441406 50.679688 323.113281 L 50.730469 322.964844 C 55.113281 309.804688 56.472656 305.628906 56.441406 305.148438 L 56.402344 304.457031 L 55.726562 304.601562 C 53.429688 305.089844 49.03125 307.964844 41.457031 313.917969 C 25.289062 326.625 12.558594 344.070312 4.640625 364.378906 C 4.292969 365.257812 3.941406 366.109375 3.59375 366.929688 C 2.269531 370.300781 1.972656 373.875 1.683594 377.332031 C 1.578125 378.628906 1.472656 379.921875 1.316406 381.167969 C 1.28125 381.5 1.285156 381.832031 1.335938 382.164062 C 1.289062 382.605469 1.332031 383.058594 1.460938 383.554688 C 2.710938 401.671875 2.226562 420.222656 1.753906 438.15625 L 1.742188 438.558594 C 1.605469 443.824219 1.46875 449.269531 1.375 454.621094 C 1.210938 460.183594 0.0507812 509.023438 8.957031 517.679688 Z M 350.816406 750.050781 L 350.8125 750.050781 Z M 817.46875 454.625 L 819.273438 449.546875 L 818.617188 454.890625 C 818.433594 456.417969 817.707031 457.792969 816.976562 459.074219 L 816.835938 459.316406 L 815.800781 458.796875 L 815.910156 458.539062 C 816.507812 457.175781 817.015625 455.894531 817.46875 454.625 Z M 342.453125 39.792969 L 341.933594 40.59375 L 341.441406 39.777344 C 341.304688 39.550781 341.128906 39.339844 340.914062 39.160156 L 340.40625 38.722656 L 340.902344 38.269531 C 342.195312 37.082031 343.410156 36.015625 344.503906 35.09375 L 344.714844 34.917969 L 345.515625 35.730469 L 345.335938 35.9375 C 344.285156 37.160156 343.3125 38.453125 342.453125 39.792969 Z M 342.453125 39.792969 " fill-opacity="1" fill-rule="nonzero"/></g><g clip-path="url(#238fab8164)"><path fill="#148f7c" d="M 332.921875 705.914062 L 331.757812 706.039062 L 331.777344 706.328125 C 331.957031 708.660156 332.148438 710.753906 332.367188 712.71875 C 333.207031 723.21875 335.082031 731.085938 338.269531 737.460938 L 338.394531 737.707031 L 339.457031 737.265625 L 339.367188 737.003906 C 337.019531 730.042969 335.742188 722.621094 334.511719 715.4375 C 334.140625 713.265625 333.71875 710.804688 333.269531 708.402344 C 333.191406 707.941406 333.125 707.464844 333.070312 706.984375 L 333.066406 706.980469 Z M 743.511719 489.535156 C 747.363281 488.921875 751.34375 488.289062 755.308594 488.160156 C 762.503906 488.105469 770.058594 487.640625 778.40625 486.742188 L 778.6875 486.714844 L 778.867188 487.859375 L 778.585938 487.914062 C 767.816406 490.097656 755.914062 490.550781 742.589844 490.878906 L 742.308594 490.890625 L 742.207031 489.746094 L 743.507812 489.535156 Z M 43.550781 332.847656 C 43.519531 333.175781 43.519531 333.511719 43.570312 333.839844 C 43.527344 334.28125 43.566406 334.738281 43.699219 335.234375 C 43.710938 335.578125 43.734375 336.03125 43.757812 336.484375 C 43.777344 336.867188 43.792969 337.210938 43.8125 337.554688 C 43.867188 338.429688 43.914062 339.304688 43.960938 340.183594 L 44 340.957031 L 44.738281 340.714844 C 45.160156 340.570312 45.511719 340.84375 45.714844 341.09375 C 46.371094 341.898438 46.546875 343.132812 46.703125 344.222656 L 46.726562 344.367188 C 47.488281 352.539062 47.402344 360.925781 47.320312 369.03125 L 47.316406 369.191406 C 47.230469 377.457031 47.136719 386 47.953125 394.402344 C 47.964844 397.640625 47.597656 400.96875 47.238281 404.183594 L 47.230469 404.285156 C 46.957031 406.742188 46.679688 409.285156 46.574219 411.808594 C 47.121094 423.726562 47.09375 434.4375 46.484375 445.542969 C 46.496094 445.9375 46.355469 446.332031 46.132812 446.546875 C 46.019531 446.652344 45.929688 446.695312 45.808594 446.695312 L 45.804688 446.695312 C 45.769531 446.679688 45.722656 446.65625 45.667969 446.636719 L 44.78125 446.328125 L 44.882812 447.261719 C 45.304688 451.199219 45.835938 454.71875 46.460938 457.71875 L 46.578125 458.296875 L 47.160156 458.179688 C 47.742188 458.082031 48.492188 458.382812 48.8125 459.335938 C 51.097656 465.152344 54.761719 471 59.699219 476.726562 C 65.398438 482 73.027344 483.339844 80.40625 484.636719 L 80.597656 484.667969 C 81.949219 484.90625 83.289062 485.144531 84.617188 485.402344 C 94.382812 487.417969 104.324219 487.269531 113.953125 487.113281 L 114.117188 487.113281 C 120.558594 487.019531 127.226562 486.929688 133.746094 487.484375 C 143.222656 486.578125 152.617188 487.414062 161.695312 488.226562 C 166.796875 488.679688 172.070312 489.148438 177.304688 489.304688 C 187.996094 487.96875 198.769531 488.523438 209.183594 489.058594 L 209.359375 489.070312 C 213.046875 489.261719 216.859375 489.464844 220.660156 489.574219 L 226.5625 489.492188 C 228.933594 489.457031 231.300781 489.421875 233.671875 489.390625 C 241.324219 488 249.074219 488.351562 256.570312 488.695312 C 259.195312 488.820312 262.121094 488.957031 264.957031 489 C 265.328125 488.996094 265.679688 488.988281 266.042969 488.988281 C 275.113281 488.277344 283.960938 487.714844 292.976562 488.503906 C 297.015625 488.378906 301.046875 488.289062 304.953125 488.199219 C 312.839844 488.011719 320.933594 487.824219 328.886719 487.355469 C 329.058594 487.347656 329.242188 487.335938 329.433594 487.324219 L 329.613281 487.308594 C 331.195312 487.195312 332.683594 487.089844 333.339844 488.371094 C 333.632812 488.933594 333.71875 489.625 333.554688 490.089844 C 333.46875 490.335938 333.324219 490.515625 333.109375 490.628906 L 332.433594 490.707031 L 332.476562 491.632812 C 332.480469 491.804688 332.488281 491.976562 332.5 492.148438 L 332.515625 492.257812 C 333.21875 494.386719 333.246094 496.84375 333.265625 499.226562 C 333.28125 500.714844 333.289062 502.089844 333.441406 503.417969 C 333.421875 506.628906 333.378906 509.746094 333.339844 512.789062 L 333.332031 513.308594 C 333.191406 523.363281 333.066406 532.804688 333.871094 543.980469 C 333.421875 550.167969 333.300781 556.554688 333.179688 562.730469 L 333.179688 562.808594 C 332.992188 572.65625 332.796875 582.84375 331.289062 592.769531 C 331.640625 614.808594 331.445312 636.585938 331.234375 653.097656 C 332.058594 661.875 332.726562 670.664062 333.371094 679.160156 C 334.238281 690.59375 335.136719 702.421875 336.414062 714.105469 C 336.570312 722.839844 337.648438 732.726562 344.433594 739.609375 C 347.46875 742.621094 350.726562 745.710938 354.296875 747.558594 C 354.871094 747.933594 355.238281 748.878906 355.148438 749.785156 C 355.082031 750.457031 354.789062 750.960938 354.324219 751.21875 C 353.195312 750.875 352.023438 750.359375 350.746094 749.652344 L 350.492188 749.511719 L 349.898438 750.523438 L 350.503906 750.914062 C 357.046875 755.308594 364.019531 757.851562 370.667969 758.257812 L 370.871094 758.261719 C 371.527344 758.28125 372.15625 758.289062 372.785156 758.214844 C 373.019531 758.277344 373.265625 758.316406 373.53125 758.339844 C 385.671875 759.53125 398.785156 760.109375 413.625 760.109375 C 416.75 760.109375 419.953125 760.085938 423.144531 760.035156 C 427.042969 759.832031 430.898438 759.730469 434.152344 759.664062 L 439.863281 759.539062 L 434.25 758.484375 C 433.121094 758.273438 431.996094 758.039062 430.871094 757.808594 L 430.410156 757.710938 C 429.328125 757.488281 428.246094 757.265625 427.171875 757.058594 C 419.046875 756.539062 410.871094 756.746094 402.964844 756.949219 L 402.808594 756.953125 C 399.503906 757.039062 396.085938 757.128906 392.726562 757.164062 C 385.414062 757.421875 378.082031 756.800781 370.992188 756.191406 L 368.265625 755.957031 C 367.59375 755.921875 367.015625 755.457031 366.847656 754.820312 C 366.773438 754.550781 366.816406 754.253906 366.953125 754.074219 C 367.042969 753.957031 367.171875 753.921875 367.304688 753.914062 C 369.136719 753.96875 370.984375 753.859375 372.765625 753.757812 L 372.851562 753.753906 C 373.949219 753.691406 375.050781 753.632812 376.152344 753.597656 C 384.507812 752.816406 392.917969 753.515625 401.050781 754.195312 C 406.621094 754.660156 412.316406 755.136719 417.949219 755.144531 C 421.972656 755.101562 426.257812 755.003906 430.546875 754.300781 C 432.339844 754.421875 434.265625 754.558594 436.1875 754.691406 C 444.371094 755.261719 452.824219 755.847656 461.300781 755.015625 C 465.550781 755.121094 469.394531 755.308594 472.785156 755.476562 C 490.53125 756.363281 498.613281 756.757812 518.5 742.917969 C 518.984375 742.855469 519.605469 743.1875 520.050781 743.75 L 520.484375 744.289062 L 520.953125 743.777344 C 525.425781 738.910156 528.992188 732.738281 531.558594 725.433594 C 533.265625 719.207031 534.316406 712.296875 534.875 703.671875 C 535.214844 698.421875 535.339844 693.070312 535.460938 687.894531 L 535.464844 687.804688 C 535.558594 683.800781 535.652344 679.691406 535.847656 675.6875 C 535.921875 671.726562 536.007812 667.78125 536.09375 663.835938 C 536.4375 648.316406 536.792969 632.265625 536.3125 616.472656 C 536.128906 612.414062 535.929688 608.367188 535.726562 604.320312 C 534.972656 589.242188 534.195312 573.644531 534.671875 558.277344 C 534.617188 550.832031 534.800781 543.429688 534.996094 536.488281 L 535.140625 531.460938 C 535.417969 521.949219 535.703125 512.105469 535.601562 502.378906 C 535.570312 498.101562 535.6875 493.476562 535.964844 488.253906 C 536.136719 488.257812 536.308594 488.261719 536.480469 488.265625 L 536.882812 488.265625 C 537.289062 488.269531 537.695312 488.277344 538.101562 488.28125 L 538.707031 488.292969 L 538.707031 487.6875 C 538.699219 487.347656 538.816406 487.09375 539.050781 486.925781 C 539.332031 486.710938 539.753906 486.667969 540.183594 486.800781 C 547.894531 487.84375 556.074219 487.957031 563.878906 487.125 C 569.226562 486.6875 574.671875 486.632812 579.9375 486.578125 C 584.398438 486.535156 589.007812 486.492188 593.589844 486.210938 C 600.195312 485.3125 605.921875 485.089844 611.121094 485.539062 C 620.257812 487.078125 629.609375 486.589844 638.648438 486.109375 L 638.800781 486.101562 C 644.367188 485.808594 650.121094 485.511719 655.769531 485.695312 C 662.097656 485.980469 668.785156 486.5 676.8125 487.335938 C 681.609375 487.566406 686.410156 487.234375 691.050781 486.90625 C 696.289062 486.546875 701.648438 486.183594 706.921875 486.59375 C 716.386719 488.007812 725.347656 487.292969 733.613281 486.3125 C 736.273438 486.21875 739.121094 486.269531 741.636719 486.308594 L 741.816406 486.3125 C 746.371094 486.386719 751.089844 486.457031 755.71875 485.824219 C 759.371094 485.164062 763.132812 484.828125 766.769531 484.503906 C 772.808594 483.964844 779.050781 483.410156 784.917969 481.375 L 785.039062 481.3125 C 786.054688 480.601562 787.015625 480.910156 787.539062 481.386719 C 788.09375 481.894531 788.425781 482.816406 787.933594 483.75 C 787.546875 484.089844 787.097656 484.363281 786.628906 484.628906 L 781.667969 487.472656 L 787.109375 485.707031 C 797.851562 482.242188 805.914062 476.574219 811.757812 468.378906 C 813.75 465.582031 815.515625 462.429688 817.003906 459.015625 C 817.617188 457.601562 818.136719 456.296875 818.589844 455.019531 C 819.449219 452.601562 820.203125 450.058594 820.824219 447.457031 C 821.261719 446.925781 821.53125 446.242188 821.605469 445.46875 C 824 427.5625 824.113281 409.0625 824.222656 391.171875 L 824.234375 389.308594 C 824.238281 386.515625 824.25 383.714844 824.261719 380.910156 C 824.355469 360.761719 824.453125 339.949219 820.769531 320.054688 C 822.441406 315.195312 814.777344 305.082031 811.925781 302.929688 C 799.425781 289.800781 780.652344 288.949219 764.089844 288.195312 L 763.867188 288.1875 C 744.792969 287.410156 725.5625 288.222656 706.96875 289.011719 L 706.300781 289.039062 C 701.417969 289.242188 696.535156 289.449219 691.652344 289.625 C 671.433594 290.347656 650.949219 289.339844 631.140625 288.371094 L 630.882812 288.359375 C 612.265625 287.453125 593.011719 286.515625 574 286.988281 C 572.472656 287.007812 570.949219 287.03125 569.4375 287.054688 L 568.78125 287.066406 C 559.597656 287.21875 550.925781 287.359375 541.824219 286.339844 C 540.882812 286.238281 539.960938 286.074219 538.867188 285.859375 L 538.570312 285.746094 C 538.140625 285.582031 537.773438 285.4375 537.441406 285.285156 C 537.605469 284.230469 537.300781 283.179688 536.589844 282.355469 C 536.617188 262.480469 536.863281 242.398438 537.101562 222.976562 C 537.449219 194.792969 537.804688 165.648438 537.496094 136.96875 C 537.285156 131.570312 537.234375 125.8125 537.175781 119.71875 C 536.847656 84.5 536.445312 40.667969 504.765625 22.515625 C 502.9375 21.492188 500.363281 20.425781 498.460938 21.097656 C 491.296875 19.308594 484.84375 18.429688 478.730469 18.417969 C 469.410156 18.367188 459.984375 18.074219 450.871094 17.785156 C 430.953125 17.164062 410.375 16.523438 390.140625 18.363281 C 368.910156 19 353.527344 24.652344 344.441406 35.160156 C 343.351562 36.417969 342.34375 37.757812 341.453125 39.148438 L 341.25 39.457031 L 341.441406 39.777344 C 342.476562 41.492188 341.710938 44.542969 341.03125 47.234375 C 340.699219 48.5625 340.386719 49.808594 340.304688 50.839844 C 338.214844 59.148438 336.714844 68.101562 335.855469 77.398438 C 336.066406 88.0625 336.070312 99.042969 335.867188 110.992188 C 336.8125 121.015625 336.570312 130.453125 336.3125 140.441406 C 336.183594 145.332031 336.050781 150.386719 336.074219 155.597656 C 337.648438 168.570312 336.046875 182.0625 334.496094 195.113281 C 334.210938 197.496094 333.929688 199.871094 333.667969 202.230469 C 334.21875 227.570312 333.816406 251.417969 332.4375 275.179688 C 332.542969 278.945312 332.644531 283.300781 332.503906 287.8125 L 332.457031 287.808594 C 332.167969 287.789062 331.917969 287.773438 331.671875 287.757812 L 331.4375 287.738281 L 331.253906 287.890625 C 330.960938 288.121094 330.5625 288.082031 330.214844 287.78125 L 330.066406 287.652344 L 329.863281 287.640625 C 315.894531 286.671875 302.941406 286 290.273438 285.585938 C 279.992188 285.253906 271.464844 285.121094 263.464844 285.128906 C 223.519531 284.320312 190.054688 284.058594 156.589844 285.421875 C 147.953125 286.058594 138.886719 285.972656 130.121094 285.890625 L 129.917969 285.886719 C 108.792969 285.679688 86.925781 285.445312 67.726562 294.988281 C 57.011719 301.808594 49.652344 309.75 45.832031 318.609375 C 44.507812 321.980469 44.210938 325.554688 43.921875 329.011719 L 43.917969 329.0625 C 43.8125 330.308594 43.710938 331.597656 43.550781 332.847656 Z M 333.476562 562.734375 L 333.480469 562.734375 Z M 333.476562 562.734375 " fill-opacity="1" fill-rule="nonzero"/></g><path fill="#000000" d="M 341.300781 38.707031 C 341.023438 38.472656 340.710938 38.257812 340.316406 38.097656 C 337.710938 38.09375 337.097656 40.640625 336.667969 43.097656 C 336.472656 44.21875 336.3125 45.320312 336.027344 46.148438 C 332.257812 61.347656 330.425781 77.097656 331.453125 92.75 C 331.8125 101.789062 331.363281 111.230469 330.917969 119.980469 C 330.585938 136.992188 331.628906 153.890625 330.289062 170.707031 C 330.25 189.976562 331.867188 209.242188 329.082031 228.402344 C 326.644531 247.667969 329.132812 267.308594 329.105469 286.550781 C 329.082031 287.292969 329.394531 287.863281 329.824219 288.230469 C 330.367188 288.695312 331.082031 288.789062 331.628906 288.347656 C 332.015625 288.035156 332.316406 287.476562 332.355469 286.550781 C 332.632812 282.769531 332.808594 278.992188 333.027344 275.214844 C 334.441406 250.910156 334.789062 226.664062 334.257812 202.296875 C 335.957031 186.960938 338.53125 170.921875 336.664062 155.59375 C 336.601562 140.214844 337.882812 126.035156 336.457031 111 C 336.261719 108.914062 336.015625 106.8125 335.699219 104.6875 C 335.402344 95.628906 335.609375 86.507812 336.445312 77.453125 C 337.273438 68.492188 338.714844 59.597656 340.894531 50.886719 C 341.136719 47.835938 343.652344 42.300781 341.953125 39.46875 C 341.78125 39.1875 341.5625 38.933594 341.300781 38.707031 Z M 778.46875 487.335938 C 770.785156 488.160156 763.148438 488.691406 755.3125 488.753906 C 751.0625 488.890625 746.824219 489.613281 742.574219 490.289062 C 740.152344 490.671875 737.726562 491.042969 735.289062 491.273438 C 726.875 492.148438 718.425781 491.007812 710 491.773438 C 701.058594 492.589844 692.324219 490.046875 683.445312 489.738281 C 672.90625 489.765625 662.386719 490.925781 651.839844 490.402344 C 648.242188 490.257812 644.652344 489.976562 641.0625 489.707031 C 640.925781 490.328125 640.636719 490.914062 640.132812 491.253906 C 637.433594 493.808594 634.996094 497.054688 632.339844 499.839844 C 623.074219 509.058594 615.707031 519.875 606.945312 529.539062 C 606.167969 530.570312 604.5625 530.625 603.855469 529.492188 C 603.054688 528.34375 603.148438 526.507812 604.078125 525.453125 C 609.007812 519.609375 614.269531 514.039062 619.851562 508.816406 C 625.910156 502.902344 630.675781 495.667969 636.335938 489.378906 C 629.195312 488.914062 622.0625 488.75 614.921875 490.101562 C 599.628906 490.347656 584.34375 490.855469 569.0625 491.285156 C 561.660156 490.820312 554.355469 489.539062 546.925781 489.9375 C 544.226562 489.574219 538.539062 491.824219 538.085938 487.859375 C 538.078125 487.792969 538.109375 487.75 538.109375 487.691406 C 538.097656 486.445312 539.265625 485.878906 540.363281 486.234375 C 548.003906 487.253906 556.070312 487.355469 563.8125 486.535156 C 573.71875 485.722656 583.648438 486.226562 593.550781 485.617188 C 599.289062 484.835938 605.335938 484.445312 611.171875 484.941406 C 625.953125 487.433594 640.90625 484.613281 655.789062 485.105469 C 662.839844 485.417969 669.859375 486.015625 676.871094 486.742188 C 686.898438 487.226562 696.921875 485.199219 706.96875 486 C 715.933594 487.335938 724.464844 486.800781 733.542969 485.71875 C 740.902344 485.464844 748.296875 486.226562 755.636719 485.238281 C 765.28125 483.488281 775.402344 484.042969 784.722656 480.808594 C 787.050781 479.15625 789.773438 481.753906 788.40625 484.117188 C 787.964844 484.535156 787.449219 484.84375 786.925781 485.144531 C 784.84375 486.34375 782.265625 486.769531 779.9375 487.183594 C 779.449219 487.238281 778.957031 487.28125 778.46875 487.335938 Z M 49.375 459.152344 C 51.855469 465.453125 55.726562 471.210938 60.152344 476.335938 C 66.730469 482.421875 76.113281 483.121094 84.734375 484.824219 C 100.902344 488.148438 117.4375 485.5 133.800781 486.890625 C 148.417969 485.484375 162.789062 488.265625 177.324219 488.714844 C 191.804688 486.886719 206.230469 488.546875 220.679688 488.980469 C 224.632812 489.101562 228.585938 489.148438 232.546875 488.980469 C 232.917969 488.90625 233.292969 488.863281 233.667969 488.796875 C 244.050781 486.886719 254.503906 488.234375 264.96875 488.40625 C 265.195312 488.410156 265.425781 488.421875 265.652344 488.421875 C 265.796875 488.414062 265.9375 488.402344 266.082031 488.390625 C 275.070312 487.6875 284.015625 487.121094 293.03125 487.910156 C 304.972656 487.527344 316.925781 487.460938 328.851562 486.761719 C 330.597656 486.679688 332.90625 486.214844 333.871094 488.097656 C 334.382812 489.085938 334.488281 490.664062 333.277344 491.210938 C 333.203125 491.21875 333.128906 491.222656 333.054688 491.234375 C 332.964844 491.246094 332.878906 491.25 332.789062 491.261719 C 332.910156 491.535156 333 491.824219 333.09375 492.109375 C 334.234375 495.558594 333.632812 499.8125 334.03125 503.351562 C 333.960938 517.785156 333.40625 529.238281 334.464844 543.9375 C 333.304688 560.230469 334.34375 576.636719 331.875 592.855469 C 332.207031 612.933594 332.085938 633.066406 331.824219 653.105469 C 333.742188 673.382812 334.792969 693.796875 337.007812 714.039062 C 337.167969 722.863281 338.335938 732.574219 344.859375 739.1875 C 347.589844 741.898438 350.933594 745.144531 354.570312 747.027344 C 356.128906 748.039062 356.246094 751.113281 354.371094 751.847656 C 353.027344 751.464844 351.726562 750.871094 350.457031 750.171875 C 349.191406 749.472656 347.980469 748.644531 346.828125 747.699219 C 346.433594 748.695312 345.863281 749.636719 345.273438 750.488281 C 342.0625 754.890625 338.496094 759.046875 334.65625 762.917969 C 327.183594 770.042969 320.804688 778.234375 313.597656 785.652344 C 312.933594 786.53125 311.613281 786.550781 311.003906 785.617188 C 310.355469 784.675781 310.390625 783.074219 311.191406 782.222656 C 315.074219 777.984375 318.96875 773.828125 323.296875 770.050781 C 330.8125 762.300781 338.503906 754.300781 343.765625 744.808594 C 341.886719 742.75 340.289062 740.449219 339.109375 738.132812 C 339 737.820312 338.910156 737.503906 338.804688 737.191406 C 335.683594 727.949219 334.484375 718.101562 332.683594 708.511719 C 332.558594 707.769531 332.476562 707.023438 332.371094 706.28125 C 331.550781 700.46875 331.222656 694.613281 330.871094 688.761719 C 329.136719 677.164062 328.523438 665.90625 329.445312 654.101562 C 329.847656 647.167969 328.871094 640.234375 328.25 633.3125 C 327.28125 622.269531 328.4375 611.183594 329.449219 600.191406 C 329.515625 586.214844 328.164062 572.273438 330.105469 558.355469 C 329.640625 540.949219 331.492188 523.644531 330.59375 506.21875 C 330.644531 501.316406 329.8125 496.4375 329.359375 491.613281 C 319.703125 492.363281 310.125 491.339844 300.371094 491.175781 C 292.921875 491.21875 285.636719 493.035156 278.207031 493.265625 C 270.964844 493.402344 263.699219 492.527344 256.488281 493.546875 C 245.394531 494.367188 234.390625 491.542969 223.277344 492.269531 C 208.0625 493.671875 193.003906 493.585938 177.773438 491.753906 C 166.148438 490.738281 154.460938 493.472656 142.839844 491.648438 C 128.398438 491.472656 113.996094 492.046875 99.683594 489.398438 C 91.300781 488.921875 82.492188 490.113281 74.1875 488.085938 C 73.652344 487.964844 73.128906 487.804688 72.601562 487.660156 C 71.613281 490.113281 69.015625 491.785156 67.347656 493.777344 C 59.613281 502.019531 51.746094 510.097656 44.023438 518.414062 C 43.472656 518.996094 42.660156 519.097656 42.164062 518.390625 C 41.6875 517.71875 41.710938 516.566406 42.292969 515.953125 C 44.671875 513.417969 47.054688 510.875 49.421875 508.34375 C 56.089844 501.398438 61.804688 492.882812 68.710938 486.316406 C 57.722656 481.730469 49.269531 471.519531 45.867188 460.195312 C 45.441406 458.671875 46.144531 457.777344 47.042969 457.597656 C 47.910156 457.425781 48.964844 457.910156 49.375 459.152344 Z M 46.175781 340.710938 C 46.964844 341.6875 47.136719 343.070312 47.3125 344.277344 C 48.871094 360.933594 46.933594 377.675781 48.542969 394.339844 C 48.570312 400.210938 47.417969 405.984375 47.167969 411.835938 C 47.691406 423.207031 47.707031 434.105469 47.078125 445.578125 C 47.105469 446.363281 46.589844 447.359375 45.699219 447.285156 C 45.609375 447.269531 45.550781 447.222656 45.472656 447.199219 C 43.871094 446.636719 44.371094 444.40625 44.175781 443 C 40.691406 409.6875 47.980469 375.917969 43.246094 342.617188 C 43.003906 341.53125 43.683594 340.433594 44.550781 340.148438 C 45.074219 339.980469 45.667969 340.105469 46.175781 340.710938 Z M 392.734375 757.757812 C 384.554688 758.058594 376.4375 757.238281 368.210938 756.546875 C 367.308594 756.503906 366.503906 755.851562 366.273438 754.96875 C 366.0625 754.226562 366.4375 753.296875 367.332031 753.320312 C 370.269531 753.394531 373.195312 753.082031 376.136719 753.007812 C 390.160156 751.679688 403.988281 754.527344 417.953125 754.550781 C 422.144531 754.507812 426.308594 754.394531 430.449219 753.714844 C 440.714844 754.332031 450.929688 755.441406 461.246094 754.421875 C 487.789062 755.054688 494.59375 758.859375 518.265625 742.355469 C 519.066406 742.160156 519.945312 742.660156 520.515625 743.378906 C 521.015625 744.003906 521.285156 744.800781 521.03125 745.480469 C 519.714844 748.027344 516.6875 749.191406 514.304688 750.613281 C 504.964844 756.90625 494.199219 758.679688 483.152344 758.835938 C 470.632812 761.195312 457.914062 757.648438 445.226562 759.824219 C 441.507812 760.234375 437.808594 759.757812 434.140625 759.070312 C 431.765625 758.625 429.40625 758.089844 427.058594 757.644531 C 415.621094 756.910156 404.179688 757.636719 392.734375 757.757812 Z M 623.550781 489.871094 C 624.25 489.222656 625.261719 489.339844 625.804688 490.117188 C 628.269531 495.261719 611.648438 506.910156 608.070312 510.945312 C 605.777344 512.726562 604.382812 508.566406 606.140625 507.226562 C 612.402344 501.882812 618.253906 496.136719 623.550781 489.871094 Z M 623.550781 489.871094 " fill-opacity="1" fill-rule="nonzero"/></svg>