<svg xmlns="http://www.w3.org/2000/svg" xmlns:xlink="http://www.w3.org/1999/xlink" width="400" zoomAndPan="magnify" viewBox="0 0 300 187.499995" height="250" preserveAspectRatio="xMidYMid meet" version="1.0"><defs><clipPath id="d0901a88bc"><path d="M 0.398438 0 L 299.601562 0 L 299.601562 187 L 0.398438 187 Z M 0.398438 0 " clip-rule="nonzero"/></clipPath></defs><g clip-path="url(#d0901a88bc)"><path fill="#00000000" d="M 0.398438 0 L 299.601562 0 L 299.601562 187 L 0.398438 187 Z M 0.398438 0 " fill-opacity="1" fill-rule="nonzero"/><path fill="#00000000" d="M 0.398438 0 L 299.601562 0 L 299.601562 187 L 0.398438 187 Z M 0.398438 0 " fill-opacity="1" fill-rule="nonzero"/></g><path fill="#ff3d00" d="M 267.699219 154.285156 C 265.25 167.144531 254.835938 176.945312 241.976562 178.78125 C 221.765625 181.84375 188.082031 185.519531 150.113281 185.519531 C 112.753906 185.519531 79.070312 181.84375 58.246094 178.78125 C 45.386719 176.945312 34.976562 167.144531 32.527344 154.285156 C 30.074219 140.199219 27.625 119.375 27.625 93.65625 C 27.625 67.933594 30.074219 47.109375 32.527344 33.023438 C 34.976562 20.164062 45.386719 10.363281 58.246094 8.527344 C 78.457031 5.464844 112.140625 1.789062 150.113281 1.789062 C 188.082031 1.789062 221.152344 5.464844 241.976562 8.527344 C 254.835938 10.363281 265.25 20.164062 267.699219 33.023438 C 270.148438 47.109375 273.210938 67.933594 273.210938 93.65625 C 272.597656 119.375 270.148438 140.199219 267.699219 154.285156 Z M 267.699219 154.285156 " fill-opacity="1" fill-rule="nonzero"/><path fill="#ffffff" d="M 125.613281 136.523438 L 125.613281 50.785156 L 199.105469 93.65625 Z M 125.613281 136.523438 " fill-opacity="1" fill-rule="nonzero"/></svg>