<svg xmlns="http://www.w3.org/2000/svg" xmlns:xlink="http://www.w3.org/1999/xlink" width="600" zoomAndPan="magnify" viewBox="0 0 450 449.999984" height="600" preserveAspectRatio="xMidYMid meet" version="1.0"><defs><clipPath id="7d0c7be0e5"><path d="M 29 38.128906 L 421 38.128906 L 421 411.628906 L 29 411.628906 Z M 29 38.128906 " clip-rule="nonzero"/></clipPath></defs><g clip-path="url(#7d0c7be0e5)"><path fill="#f0983e" d="M 418.691406 178.652344 C 415.570312 169.101562 407.445312 162.210938 397.4375 160.78125 L 301.5 146.804688 C 297.210938 146.21875 293.441406 143.425781 291.492188 139.527344 L 248.59375 52.625 C 244.109375 43.523438 235.074219 37.933594 225 37.933594 C 214.925781 37.933594 205.890625 43.523438 201.40625 52.625 L 158.570312 139.460938 C 156.554688 143.425781 152.785156 146.21875 148.496094 146.804688 L 52.5625 160.78125 C 42.550781 162.210938 34.425781 169.101562 31.308594 178.652344 C 28.1875 188.273438 30.722656 198.609375 37.9375 205.628906 L 107.355469 273.289062 C 110.539062 276.34375 111.96875 280.765625 111.1875 285.054688 L 94.808594 380.601562 C 93.121094 390.546875 97.148438 400.425781 105.273438 406.339844 C 109.886719 409.71875 115.285156 411.410156 120.679688 411.410156 C 124.902344 411.410156 129.128906 410.371094 133.027344 408.355469 L 216.550781 364.351562 C 230.652344 393.144531 259.578125 411.410156 292.011719 411.410156 C 301.242188 411.410156 310.273438 409.914062 318.726562 406.988281 C 331.722656 402.765625 343.617188 395.160156 353.304688 384.957031 C 368.058594 369.292969 376.183594 348.753906 376.183594 327.238281 C 376.183594 303.902344 366.628906 282.066406 349.859375 266.269531 L 412.0625 205.628906 C 419.277344 198.609375 421.808594 188.273438 418.691406 178.652344 Z M 283.429688 358.046875 C 281.742188 358.046875 280.050781 357.332031 278.882812 356.097656 L 257.367188 334.648438 C 254.832031 332.046875 254.832031 327.953125 257.367188 325.417969 C 259.902344 322.882812 263.996094 322.882812 266.53125 325.417969 L 283.429688 342.316406 L 322.882812 302.863281 C 325.417969 300.328125 329.515625 300.328125 332.050781 302.863281 C 334.585938 305.464844 334.585938 309.558594 332.050781 312.09375 L 288.046875 356.097656 C 286.8125 357.332031 285.1875 358.046875 283.429688 358.046875 Z M 402.960938 196.269531 L 339.71875 257.949219 C 339.523438 257.820312 339.328125 257.691406 339.132812 257.5625 C 338.355469 257.039062 337.574219 256.585938 336.792969 256.132812 C 335.6875 255.351562 334.519531 254.636719 333.347656 253.984375 C 332.570312 253.53125 331.722656 253.074219 330.878906 252.6875 C 329.710938 252.035156 328.539062 251.453125 327.371094 250.929688 C 326.523438 250.542969 325.679688 250.152344 324.769531 249.761719 C 323.597656 249.242188 322.429688 248.785156 321.195312 248.332031 C 320.285156 248.007812 319.441406 247.679688 318.53125 247.421875 C 317.292969 246.964844 315.996094 246.640625 314.761719 246.25 C 313.851562 246.054688 313.003906 245.796875 312.09375 245.535156 C 310.796875 245.210938 309.429688 244.953125 308.128906 244.691406 C 307.21875 244.5625 306.375 244.367188 305.53125 244.238281 C 304.035156 243.976562 302.539062 243.847656 301.046875 243.652344 C 300.265625 243.585938 299.550781 243.457031 298.835938 243.390625 C 296.5625 243.261719 294.285156 243.132812 292.011719 243.132812 C 245.601562 243.132812 207.90625 280.828125 207.90625 327.238281 C 207.90625 329.707031 208.035156 332.113281 208.230469 334.582031 C 208.292969 335.296875 208.425781 336.078125 208.488281 336.859375 C 208.683594 338.546875 208.945312 340.171875 209.203125 341.863281 C 209.398438 342.707031 209.527344 343.550781 209.722656 344.398438 C 210.050781 346.023438 210.4375 347.648438 210.894531 349.207031 C 211.089844 349.988281 211.285156 350.703125 211.480469 351.480469 C 211.609375 351.742188 211.609375 352.003906 211.738281 352.261719 L 126.917969 396.851562 C 122.367188 399.253906 117.101562 398.863281 112.941406 395.808594 C 108.71875 392.753906 106.769531 387.945312 107.679688 382.8125 L 124.058594 287.265625 C 125.488281 278.683594 122.628906 269.976562 116.453125 263.929688 L 47.035156 196.269531 C 43.332031 192.695312 42.03125 187.625 43.65625 182.683594 C 45.28125 177.746094 49.246094 174.363281 54.378906 173.648438 L 150.316406 159.675781 C 158.832031 158.441406 166.242188 153.109375 170.207031 145.246094 L 213.105469 58.34375 C 215.378906 53.730469 219.863281 50.933594 225 50.933594 C 230.132812 50.933594 234.617188 53.730469 236.894531 58.34375 L 279.855469 145.3125 C 283.757812 153.109375 291.164062 158.441406 299.679688 159.675781 L 395.617188 173.648438 C 400.75 174.363281 404.714844 177.746094 406.339844 182.683594 C 407.964844 187.625 406.667969 192.695312 402.960938 196.269531 Z M 402.960938 196.269531 " fill-opacity="1" fill-rule="nonzero"/></g><path fill="#f0983e" d="M 330.523438 225.171875 C 325.398438 223.242188 320.082031 221.683594 314.722656 220.546875 C 311.21875 219.777344 307.757812 222.039062 307.011719 225.554688 C 306.265625 229.074219 308.507812 232.515625 312.023438 233.265625 C 316.742188 234.265625 321.421875 235.636719 325.933594 237.339844 C 326.6875 237.625 327.460938 237.761719 328.226562 237.761719 C 330.851562 237.761719 333.324219 236.15625 334.3125 233.558594 C 335.578125 230.195312 333.882812 226.445312 330.523438 225.179688 Z M 330.523438 225.171875 " fill-opacity="1" fill-rule="nonzero"/><path fill="#f0983e" d="M 283.761719 218.476562 C 227.226562 222.710938 182.945312 270.476562 182.945312 327.226562 C 182.945312 330.8125 185.855469 333.726562 189.445312 333.726562 C 193.03125 333.726562 195.945312 330.8125 195.945312 327.226562 C 195.945312 277.242188 234.941406 235.167969 284.730469 231.4375 C 288.3125 231.171875 290.996094 228.050781 290.722656 224.472656 C 290.457031 220.890625 287.3125 218.148438 283.757812 218.476562 Z M 283.761719 218.476562 " fill-opacity="1" fill-rule="nonzero"/></svg>